<?xml version="1.0" encoding="UTF-8" standalone="no"?><!DOCTYPE svg PUBLIC "-//W3C//DTD SVG 1.1//EN" "http://www.w3.org/Graphics/SVG/1.1/DTD/svg11.dtd"><svg width="100%" height="100%" viewBox="0 0 4961 3507" version="1.1" xmlns="http://www.w3.org/2000/svg" xmlns:xlink="http://www.w3.org/1999/xlink" xml:space="preserve" xmlns:serif="http://www.serif.com/" style="fill-rule:evenodd;clip-rule:evenodd;stroke-linecap:round;stroke-linejoin:round;stroke-miterlimit:10;"><g id="Standard"><path d="M2547.66,1594.93l8.284,11.483" style="fill:none;fill-rule:nonzero;stroke:#000;stroke-width:12.5px;"/><path d="M2233.43,2527.59l2.177,4.352" style="fill:none;fill-rule:nonzero;stroke:#000;stroke-width:12.5px;"/><path d="M2445.97,2846.77l-3.627,-4.353" style="fill:none;fill-rule:nonzero;stroke:#000;stroke-width:12.5px;"/><path d="M2202.24,2743.76l0,6.529" style="fill:none;fill-rule:nonzero;stroke:#000;stroke-width:12.5px;"/><path d="M2233.43,2816.3l0.726,5.078" style="fill:none;fill-rule:nonzero;stroke:#000;stroke-width:12.5px;"/><path d="M2233.43,2720.55l0.726,4.352" style="fill:none;fill-rule:nonzero;stroke:#000;stroke-width:12.5px;"/><path d="M2119.19,1594.56l428.474,0.377l41.014,-23.684l-510.974,-0.102l41.486,23.409Z" style="fill:none;fill-rule:nonzero;stroke:#000;stroke-width:12.5px;"/><path d="M2445.97,2797.44l-1.886,-3.772" style="fill:none;fill-rule:nonzero;stroke:#000;stroke-width:12.5px;"/><path d="M2119.19,1594.56l-1.001,11.861" style="fill:none;fill-rule:nonzero;stroke:#000;stroke-width:12.5px;"/><path d="M2233.43,2286.76l0,5.492" style="fill:none;fill-rule:nonzero;stroke:#000;stroke-width:12.5px;"/><path d="M2202.24,2792.37l0,5.077" style="fill:none;fill-rule:nonzero;stroke:#000;stroke-width:12.5px;"/><path d="M2233.43,2624.07l0.726,4.352" style="fill:none;fill-rule:nonzero;stroke:#000;stroke-width:12.5px;"/><path d="M2202.24,2647.29l0,5.803" style="fill:none;fill-rule:nonzero;stroke:#000;stroke-width:12.5px;"/><path d="M2233.43,2238.88l0.726,4.353" style="fill:none;fill-rule:nonzero;stroke:#000;stroke-width:12.5px;"/><path d="M2445.25,2510.18l-0,-5.803" style="fill:none;fill-rule:nonzero;stroke:#000;stroke-width:12.5px;"/><path d="M2203.33,2839.16l-1.088,6.891" style="fill:none;fill-rule:nonzero;stroke:#000;stroke-width:12.5px;"/><path d="M2232.52,2864.18l0.906,5.527" style="fill:none;fill-rule:nonzero;stroke:#000;stroke-width:12.5px;"/><path d="M2202.24,2502.93l0,6.529" style="fill:none;fill-rule:nonzero;stroke:#000;stroke-width:12.5px;"/><path d="M2445.97,2412.62l-0.725,-4.715" style="fill:none;fill-rule:nonzero;stroke:#000;stroke-width:12.5px;"/><path d="M2202.96,2550.81l-0.726,6.529" style="fill:none;fill-rule:nonzero;stroke:#000;stroke-width:12.5px;"/><path d="M2445.97,2364.38l-0,-5.492" style="fill:none;fill-rule:nonzero;stroke:#000;stroke-width:12.5px;"/><path d="M2202.24,2695.89l0,5.803" style="fill:none;fill-rule:nonzero;stroke:#000;stroke-width:12.5px;"/><path d="M2233.43,2840.97l0,-5.804" style="fill:none;fill-rule:nonzero;stroke:#000;stroke-width:12.5px;"/><path d="M2202.24,2455.05l0,6.529" style="fill:none;fill-rule:nonzero;stroke:#000;stroke-width:12.5px;"/><path d="M2445.97,2461.22l-0,-5.856" style="fill:none;fill-rule:nonzero;stroke:#000;stroke-width:12.5px;"/><path d="M2202.24,2358.58l0,5.803" style="fill:none;fill-rule:nonzero;stroke:#000;stroke-width:12.5px;"/><path d="M2233.43,2768.43l0.726,4.353" style="fill:none;fill-rule:nonzero;stroke:#000;stroke-width:12.5px;"/><path d="M2233.43,2575.47l2.177,4.352" style="fill:none;fill-rule:nonzero;stroke:#000;stroke-width:12.5px;"/><path d="M2202.24,2406.45l0,5.804" style="fill:none;fill-rule:nonzero;stroke:#000;stroke-width:12.5px;"/><path d="M2242.14,2978.8l5.078,-0.725l5.078,0l5.803,-0.725l5.078,-0l5.803,-0.726l6.529,0l5.803,-0.725l6.529,-0l5.803,-0.726l7.254,0l6.529,-0.725l7.254,-0.726l7.254,0l7.254,-0.725l7.254,0l7.254,-0.725l7.254,-0l13.057,-1.451l6.529,0l6.529,-0.726l6.528,0l5.803,-0.725l11.607,0l7.254,-0.725l5.803,-0.726l6.529,0l5.803,-0.725l5.803,-0l5.804,-0.726l5.803,0l5.078,-0.725l4.352,-0.725l4.353,-0l7.254,-1.451l2.901,-0l2.902,-0.726l2.176,0l2.902,-1.45l0.725,-0l0.725,-0.726" style="fill:none;fill-rule:nonzero;stroke:#000;stroke-width:12.5px;"/><path d="M2233.43,2864.18l0.726,-0.726l1.451,-0.725l1.45,-0.726l2.177,0l2.176,-0.725l2.902,-0.725l2.901,-0l2.902,-0.726l4.352,-0.725l3.627,-0l8.705,-1.451l5.078,-0l5.078,-0.726l5.078,0l5.077,-0.725l5.804,-0.725l5.803,-0l5.803,-0.726l5.803,0l13.058,-1.451l6.528,0l13.057,-1.45l6.529,-0l13.057,-1.451l5.804,-0l6.528,-0.726l5.803,-0.725l5.804,-0l5.803,-0.725l5.078,-0l10.155,-1.451l4.353,-0l5.078,-0.726l4.352,-0.725l3.627,-0l4.352,-0.725l2.902,-0.726l3.627,0l4.353,-1.451l2.176,0l2.901,-1.45l5.078,-2.902l4.353,-2.176l4.352,-2.902l4.352,-2.176l7.255,-4.352l2.901,-2.177l3.627,-1.451l0,-6.528l-15.959,-10.156l-15.233,-8.705" style="fill:none;fill-rule:nonzero;stroke:#000;stroke-width:12.5px;"/><path d="M2458.31,2997.66l-0.725,0.725l-2.902,0l-1.451,0.726l-2.902,-0l-2.176,0.725l-7.254,0l-2.176,0.725l-5.803,0l-2.902,0.726l-10.881,-0l-3.627,0.725l-7.979,0l-3.627,0.726l-13.058,-0l-4.352,0.725l-9.43,0l-4.353,0.725l-14.508,0l-5.078,0.726l-9.43,0l-4.353,0.725l-13.782,0l-5.078,0.726l-8.705,-0l-4.352,0.725l-13.058,0l-4.352,0.725l-7.979,0l-3.627,0.726l-9.431,0l-2.901,0.725l-7.254,0l-2.902,0.726l-22.488,-0l0,-1.451l0.726,0l0,-0.726l1.451,-0.725l1.45,0l1.451,-0.725l2.177,-0.726l2.176,0l2.901,-0.725l3.627,-0.726l3.627,0l3.627,-0.725l4.353,-0.725l4.352,-0l5.078,-0.726l4.352,-0.725l5.078,-0l5.804,-0.726l5.077,0l5.804,-0.725l5.803,0l5.803,-0.725l6.529,-0.726l6.528,0l13.058,-1.451l6.528,0l13.058,-1.45l6.528,-0l5.803,-0.726l6.529,-0.725l5.803,-0l11.607,-1.451l5.078,0l5.077,-0.725l5.078,-0l10.156,-1.451l4.352,-0l4.353,-0.726l3.627,-0.725l3.627,0l5.803,-1.451l2.176,0l4.353,-1.451l0.725,0l0.726,-0.725l5.077,-2.902l4.353,-2.176l4.352,-2.901l4.353,-2.177l7.254,-4.352l2.901,-2.176l3.627,-1.451l0,-7.254l-15.958,-9.43l-15.234,-8.705" style="fill:none;fill-rule:nonzero;stroke:#000;stroke-width:12.5px;"/><path d="M2202.96,2406.45l0.725,-0.725l1.451,0l2.901,-1.451l2.177,0l2.901,-0.725l2.176,-0l3.627,-0.726l2.902,0l3.627,-0.725l3.627,0l4.352,-0.725l4.353,-0l4.352,-0.726l5.078,0l5.078,-0.725l5.803,-0l5.078,-0.726l5.803,0l6.529,-0.725l5.803,0l6.529,-0.725l5.803,-0l7.254,-0.726l6.529,-0.725l7.254,-0l7.254,-0.726l7.254,0l7.254,-0.725l7.254,0l7.254,-0.725l6.529,-0.726l6.528,0l6.529,-0.725l6.529,-0l6.528,-0.726l5.803,0l5.804,-0.725l5.803,0l7.254,-0.725l5.803,-0l6.529,-0.726l5.803,0l5.803,-0.725l5.804,-0l5.803,-0.726l5.078,-0.725l4.352,0l4.353,-0.726l3.627,-0.725l3.627,0l2.901,-0.725l2.902,-0l2.176,-0.726l1.451,-0.725l1.451,0l0.725,-0.726l0.725,0l0,-1.45l-15.958,-8.705l-15.234,-8.705l-0,0.725l-0.725,0.726l-1.451,0.725l-1.451,0l-4.352,1.451l-2.902,0l-5.803,1.451l-4.353,-0l-3.627,0.725l-4.352,0.726l-5.078,-0l-4.352,0.725l-5.078,0l-5.078,0.725l-5.803,0.726l-5.804,-0l-5.803,0.725l-6.528,0.726l-6.529,-0l-6.529,0.725l-5.803,0.725l-6.529,0l-5.803,0.726l-5.803,0l-5.803,0.725l-6.529,0.726l-5.803,-0l-5.804,0.725l-5.803,0l-5.078,0.725l-5.803,0.726l-5.078,0l-5.077,0.725l-5.078,0l-4.353,0.726l-5.078,-0l-5.077,0.725l-4.353,0.725l-3.627,0l-4.352,0.726l-3.627,0.725l-3.627,0l-5.803,1.451l-2.177,0l-2.901,1.451l-1.451,0l-15.234,9.43l-15.958,9.43l-0.726,0" style="fill:none;fill-rule:nonzero;stroke:#000;stroke-width:12.5px;"/><path d="M2206.59,2981.7l-0.726,0.725l24.664,24.664" style="fill:none;fill-rule:nonzero;stroke:#000;stroke-width:12.5px;"/><path d="M2233.43,3009.99l5.078,5.078l203.114,-0l16.684,-17.41l-0,-0.726l-12.332,-6.528" style="fill:none;fill-rule:nonzero;stroke:#000;stroke-width:12.5px;"/><path d="M2202.24,2358.58l0.726,-0.726l0.725,0l1.451,-0.725l1.451,0l1.45,-0.725l2.177,-0l2.901,-0.726l2.176,-0.725l3.627,-0l2.902,-0.726l3.627,0l3.627,-0.725l4.352,0l4.353,-0.725l4.352,-0l5.078,-0.726l5.078,0l5.803,-0.725l5.078,-0l5.803,-0.726l6.529,0l5.803,-0.725l6.529,0l5.803,-0.726l7.254,0l6.529,-0.725l7.254,0l14.508,-1.451l7.254,0l7.254,-0.725l7.254,0l6.529,-0.726l6.528,0l6.529,-0.725l6.529,0l6.528,-0.725l5.803,-0l5.804,-0.726l5.803,0l7.254,-0.725l5.803,-0l6.529,-0.726l5.803,-0.725l5.803,0l5.804,-0.725l5.803,-0l5.078,-0.726l4.352,-0.725l4.353,0l7.254,-1.451l2.901,0l2.902,-0.725l2.176,-0l1.451,-0.726l1.451,0l0.725,-0.725l0.725,-0l0,-1.451l-15.958,-9.43l-15.234,-8.705" style="fill:none;fill-rule:nonzero;stroke:#000;stroke-width:12.5px;"/><path d="M2202.96,2743.04l15.958,-8.705l15.234,-9.43l0.725,-0l0.726,-0.725l1.45,-0l1.451,-0.726l2.177,-0.725l2.901,-0l2.902,-0.726l3.627,-0.725l3.627,-0l4.352,-0.725l3.627,-0.726l4.353,-0l10.155,-1.451l4.353,0l5.078,-0.725l5.077,-0l5.078,-0.725l5.803,-0l5.078,-0.726l5.803,-0.725l5.804,-0l5.803,-0.726l6.529,0l11.606,-1.45l5.803,-0l6.529,-0.726l5.803,-0l13.058,-1.451l6.528,0l11.607,-1.45l5.803,-0l10.156,-1.451l4.352,-0l5.078,-0.726l4.352,0l3.627,-0.725l4.353,-0.726l2.901,0l5.804,-1.45l2.176,-0.726l2.176,0l1.451,-0.725l1.451,-0l0.725,-0.726l-0,-6.528" style="fill:none;fill-rule:nonzero;stroke:#000;stroke-width:12.5px;"/><path d="M2202.24,2647.29l0.726,-0.726l0.725,0l1.451,-0.725l1.451,-0l1.45,-0.725l2.177,-0l2.901,-0.726l2.176,0l3.627,-0.725l2.902,-0l3.627,-0.726l3.627,0l4.352,-0.725l4.353,-0l4.352,-0.726l5.078,0l5.078,-0.725l5.803,-0.725l5.078,-0l5.803,-0.726l12.332,0l6.529,-0.725l5.803,-0.726l7.254,0l6.529,-0.725l7.254,-0l7.254,-0.725l7.254,-0l14.508,-1.451l7.254,-0l6.529,-0.725l6.528,-0l6.529,-0.726l6.529,-0l6.528,-0.725l5.803,-0l5.804,-0.726l5.803,0l7.254,-0.725l5.803,-0l6.529,-0.725l5.803,-0l11.607,-1.451l5.803,-0l5.078,-0.726l4.352,0l4.353,-0.725l3.627,-0.726l3.627,0l5.803,-1.45l2.176,-0l1.451,-0.726l1.451,0l0.725,-0.725l0.725,-0l0,-1.451l-15.958,-8.705l-15.234,-8.705" style="fill:none;fill-rule:nonzero;stroke:#000;stroke-width:12.5px;"/><path d="M2202.96,2550.81l0.725,-0.725l1.451,-0l1.451,-0.726l1.45,0l2.177,-0.725l2.901,-0l2.176,-0.726l3.627,-0.725l2.902,-0l3.627,-0.726l3.627,0l4.352,-0.725l4.353,0l4.352,-0.725l5.078,-0l5.078,-0.726l5.803,0l5.078,-0.725l5.803,-0l6.529,-0.725l5.803,-0l6.529,-0.726l5.803,0l7.254,-0.725l6.529,-0l14.508,-1.451l7.254,-0l7.254,-0.726l7.254,0l7.254,-0.725l6.529,0l6.528,-0.725l6.529,-0l6.529,-0.726l6.528,0l5.803,-0.725l5.804,-0l5.803,-0.726l7.254,0l5.803,-0.725l6.529,-0.725l5.803,-0l5.803,-0.726l5.804,0l5.803,-0.725l5.078,-0.726l4.352,0l4.353,-0.725l3.627,0l3.627,-0.725l2.901,-0.726l2.902,0l2.176,-0.725l1.451,-0l1.451,-0.726l0.725,0l0.725,-0.725l0,-0.726l0,6.529l-0.725,0.726l-0.725,-0l-1.451,0.725l-2.176,0.725l-2.177,0l-2.176,0.726l-2.901,-0l-3.627,0.725l-3.627,0l-3.627,0.726l-4.353,0.725l-4.352,0l-4.353,0.725l-5.078,0l-5.803,0.726l-5.803,-0l-5.803,0.725l-5.804,0l-5.803,0.726l-5.803,-0l-5.803,0.725l-6.529,0l-6.529,0.726l-7.254,-0l-6.528,0.725l-7.254,0.725l-7.254,0l-7.254,0.726l-7.98,-0l-14.508,1.45l-7.254,0l-7.254,0.726l-6.529,-0l-6.528,0.725l-6.529,0l-6.529,0.726l-6.528,-0l-5.078,0.725l-5.803,0l-5.078,0.726l-5.078,-0l-5.078,0.725l-5.078,-0l-5.077,0.725l-5.078,0l-4.353,0.726l-4.352,-0l-7.254,1.45l-3.627,0l-2.902,0.726l-2.176,-0l-2.176,0.725l-2.176,0l-1.451,0.726l-1.451,-0l-0.725,0.725l-0.726,0l0,0.726l0.726,0.725l2.901,1.451l10.881,6.528l4.353,2.177l3.627,2.901l5.077,2.176l3.627,2.177l0.726,-0.726l2.901,-1.451l1.451,0l2.177,-0.725l2.901,-0.725l2.902,-0l2.901,-0.726l3.627,-0.725l3.627,-0l8.705,-1.451l5.078,0l10.156,-1.451l5.078,0l5.803,-0.725l5.078,-0l5.803,-0.726l6.528,-0.725l5.804,-0l13.057,-1.451l6.529,0l13.057,-1.451l6.529,0l13.057,-1.45l5.803,-0l6.529,-0.726l5.803,0l5.078,-0.725l5.803,-0.726l5.078,0l5.078,-0.725l5.078,-0l8.704,-1.451l4.353,0l7.254,-1.451l2.902,0l5.803,-1.451l1.451,0l2.176,-0.725l0.725,-0.725l0.726,-0l5.077,-2.902l4.353,-2.902l8.705,-4.352l7.254,-4.352l2.901,-2.177l3.627,-1.45" style="fill:none;fill-rule:nonzero;stroke:#000;stroke-width:12.5px;"/><path d="M2233.43,2334.64l1.451,-1.45l1.451,-0l1.451,-0.726l2.176,-0.725l2.176,-0l5.804,-1.451l3.627,0l3.627,-0.725l4.352,-0.726l4.352,0l4.353,-0.725l5.078,-0.726l5.078,0l5.077,-0.725l5.078,0l11.607,-1.451l5.803,0l6.528,-0.725l5.804,-0l13.057,-1.451l6.529,0l19.586,-2.176l6.528,-0l6.529,-0.726l5.803,0l11.607,-1.45l5.803,-0l5.078,-0.726l5.078,0l5.077,-0.725l4.353,-0.726l5.078,0l3.627,-0.725l4.352,-0.725l3.627,-0l3.627,-0.726l2.902,-0.725l2.176,-0l4.352,-1.451l1.451,0l0.726,-0.726l5.077,-2.901l4.353,-2.902l8.705,-4.352l7.254,-4.353l2.901,-2.176l3.627,-1.451l0,-7.254l-15.958,-9.43l-15.234,-8.705" style="fill:none;fill-rule:nonzero;stroke:#000;stroke-width:12.5px;"/><path d="M2477.17,2629.88l-0.725,0.725l-2.176,0.726l-2.177,-0l-2.176,0.725l-2.176,0l-2.902,0.725l-3.627,0.726l-3.627,-0l-3.627,0.725l-4.352,0l-4.353,0.726l-4.352,-0l-5.078,0.725l-5.803,0.725l-5.803,0l-5.804,0.726l-5.803,-0l-5.803,0.725l-5.803,0l-5.803,0.726l-6.529,-0l-6.529,0.725l-7.254,0l-6.528,0.725l-7.254,0l-14.509,1.451l-7.979,0l-7.254,0.726l-7.254,-0l-14.508,1.45l-6.529,0l-6.528,0.726l-6.529,0l-6.529,0.725l-6.528,0l-5.078,0.726l-10.881,-0l-5.078,0.725l-5.078,0l-10.155,1.451l-5.078,0l-4.353,0.725l-4.352,0l-3.627,0.726l-3.627,-0l-3.627,0.725l-2.902,0.725l-2.176,0l-2.176,0.726l-2.176,0l-1.451,0.725l-1.451,0l-0.725,0.726" style="fill:none;fill-rule:nonzero;stroke:#000;stroke-width:12.5px;"/><path d="M2233.43,2388.32l0,-5.803l0.726,-0.725l0.725,-0l1.451,-0.726l1.451,0l1.451,-0.725l2.901,-0.726l2.177,0l3.627,-0.725l2.901,-0.725l4.353,-0.726l3.627,0l4.352,-0.725l5.078,-0.726l4.352,0l5.078,-0.725l5.078,0l5.803,-0.725l5.078,-0l11.606,-1.451l6.529,-0l5.803,-0.726l6.529,-0.725l6.529,0l13.057,-1.451l6.529,0l13.057,-1.451l6.528,0l11.607,-1.45l5.803,-0l5.803,-0.726l5.078,0l10.156,-1.451l5.078,0l8.705,-1.45l3.627,-0l7.254,-1.451l2.901,-0l2.902,-0.726l2.176,-0.725l1.451,0l2.902,-1.451l5.077,-2.901l4.353,-2.177l4.352,-2.901l4.353,-2.177l7.254,-4.352l2.901,-1.451l3.627,-2.176l0,-6.529" style="fill:none;fill-rule:nonzero;stroke:#000;stroke-width:12.5px;"/><path d="M2202.96,2695.16l0.725,-0.725l1.451,-0l1.451,-0.725l1.45,-0l2.177,-0.726l2.901,0l2.176,-0.725l3.627,-0l2.902,-0.726l3.627,-0.725l3.627,-0l4.352,-0.725l4.353,-0l4.352,-0.726l5.078,0l5.078,-0.725l5.803,-0l5.078,-0.726l5.803,0l6.529,-0.725l5.803,-0l6.529,-0.725l5.803,-0l7.254,-0.726l6.529,0l7.254,-0.725l7.254,-0l14.508,-1.451l7.254,-0l7.254,-0.725l6.529,-0l6.528,-0.726l6.529,0l6.529,-0.725l6.528,-0l5.803,-0.726l5.804,0l5.803,-0.725l7.254,-0l5.803,-0.725l6.529,-0l11.606,-1.451l5.804,-0l5.803,-0.726l5.078,0l8.705,-1.451l3.627,0l3.627,-0.725l2.901,-0.725l2.902,-0l2.176,-0.726l1.451,0l1.451,-0.725l0.725,-0l0.725,-0.726" style="fill:none;fill-rule:nonzero;stroke:#000;stroke-width:12.5px;"/><path d="M2202.24,2502.93l0.726,-0.725l0.725,-0l1.451,-0.726l1.451,0l1.45,-0.725l2.177,0l2.901,-0.725l2.176,-0l3.627,-0.726l2.902,0l7.254,-1.451l4.352,0l4.353,-0.725l4.352,0l5.078,-0.725l5.078,-0l5.803,-0.726l5.078,0l5.803,-0.725l6.529,-0l5.803,-0.726l6.529,0l5.803,-0.725l7.254,0l6.529,-0.726l7.254,0l7.254,-0.725l7.254,0l14.508,-1.451l7.254,0l6.529,-0.725l6.528,-0l6.529,-0.726l6.529,0l6.528,-0.725l5.803,0l5.804,-0.725l5.803,-0l7.254,-0.726l5.803,0l6.529,-0.725l5.803,-0l11.607,-1.451l5.803,0l5.078,-0.725l4.352,-0.726l4.353,0l3.627,-0.725l3.627,-0l5.803,-1.451l2.176,0l1.451,-0.725l1.451,-0l0.725,-0.726l0.725,0l0,-1.451l-15.958,-8.704l-15.234,-8.705l-0,0.725l-0.725,0.725l-1.451,0l-1.451,0.726l-2.176,0.725l-2.176,0l-5.804,1.451l-2.901,0l-4.353,0.725l-3.627,0.726l-4.352,0l-5.078,0.725l-4.352,0.726l-5.078,-0l-5.078,0.725l-5.803,0l-11.607,1.451l-6.528,0l-13.058,1.451l-5.803,-0l-6.529,0.725l-5.803,0.726l-5.803,-0l-5.803,0.725l-6.529,0l-11.607,1.451l-5.803,-0l-5.078,0.725l-5.803,0l-5.078,0.726l-5.077,-0l-5.078,0.725l-4.353,0.725l-5.078,0l-5.077,0.726l-4.353,-0l-3.627,0.725l-4.352,0.726l-3.627,-0l-3.627,0.725l-5.803,1.451l-2.177,-0l-1.451,0.725l-1.45,0l-0.726,0.726l-0.725,-0l-15.234,9.43l-15.958,8.705" style="fill:none;fill-rule:nonzero;stroke:#000;stroke-width:12.5px;"/><path d="M2473.22,2197.88l-3.308,1.103l-2.176,-0l-2.901,0.725l-3.627,0l-3.627,0.726l-3.627,-0l-8.705,1.451l-4.353,-0l-5.078,0.725l-5.803,-0l-5.803,0.725l-5.803,0l-5.804,0.726l-5.803,-0l-5.803,0.725l-5.803,0l-6.529,0.726l-6.529,-0l-7.254,0.725l-6.528,-0l-14.508,1.451l-7.254,-0l-7.98,0.725l-7.254,0l-14.508,1.451l-7.254,-0l-6.529,0.725l-6.528,0l-6.529,0.726l-6.529,-0l-6.528,0.725l-5.078,0l-5.803,0.726l-5.078,-0l-5.078,0.725l-5.078,-0l-5.078,0.725l-5.077,0l-5.078,0.726l-4.353,-0l-4.352,0.725l-3.627,0l-7.254,1.451l-2.902,0l-2.176,0.725l-2.176,0l-2.176,0.726l-1.451,-0l-1.451,0.725l-0.725,0l-0.726,0.726" style="fill:none;fill-rule:nonzero;stroke:#000;stroke-width:12.5px;"/><path d="M2202.96,2839.52l15.958,-9.43l15.234,-8.705l1.451,-0.726l1.45,-0.725l1.451,-0l2.177,-0.726l2.901,-0.725l2.902,-0l7.254,-1.451l4.352,0l3.627,-0.725l4.353,-0.726l5.077,0l5.078,-0.725l4.353,-0l5.078,-0.725l5.077,-0l5.078,-0.726l5.803,-0.725l5.078,-0l5.803,-0.726l5.804,0l5.803,-0.725l6.529,-0.725l5.803,-0l5.803,-0.726l5.803,0l6.529,-0.725l5.803,-0.726l6.529,0l13.057,-1.45l5.803,-0l11.607,-1.451l5.078,-0l5.077,-0.726l4.353,0l5.078,-0.725l4.352,-0.725l3.627,-0l4.352,-0.726l2.902,-0.725l2.902,-0l2.901,-0.726l2.177,-0.725l2.176,-0l2.901,-1.451" style="fill:none;fill-rule:nonzero;stroke:#000;stroke-width:12.5px;"/><path d="M2233.43,2478.99l0.726,-0.726l0.725,0l0.726,-0.725l1.45,-0.725l2.177,-0l4.352,-1.451l3.627,-0l2.902,-0.726l3.627,-0.725l4.352,0l8.705,-1.451l5.078,0l4.352,-0.725l5.804,-0l10.155,-1.451l5.803,0l5.804,-0.725l6.528,-0l5.804,-0.726l6.528,-0.725l6.529,-0l13.057,-1.451l6.529,0l13.057,-1.451l6.529,0l11.606,-1.451l5.803,0l5.804,-0.725l5.077,0l10.156,-1.451l5.078,0l8.705,-1.451l4.352,0l7.254,-1.451l2.902,0l2.902,-0.725l2.176,-0.725l2.176,-0l2.902,-1.451l5.077,-2.902l4.353,-2.176l4.352,-2.902l4.353,-2.176l7.254,-4.352l2.901,-2.176l3.627,-1.451l0,-7.254l-15.958,-9.431l-15.234,-8.704" style="fill:none;fill-rule:nonzero;stroke:#000;stroke-width:12.5px;"/><path d="M2233.43,2238.88l-3.627,-2.176l-5.077,-2.902l-3.627,-2.901l-4.353,-2.177l-7.254,-4.352l-3.627,-1.451l-2.901,-2.176l-0.726,-0l0,-7.254l1.451,-0l2.902,-1.451l1.45,0l2.177,-0.725l2.901,-0l2.176,-0.726l3.627,0l2.902,-0.725l3.627,-0l3.627,-0.725l4.352,-0l4.353,-0.726l4.352,0l5.078,-0.725l5.078,-0l5.803,-0.726l5.078,0l5.803,-0.725l6.529,-0l5.803,-0.725l6.529,-0l5.803,-0.726l7.254,0l6.529,-0.725l7.254,-0.726l7.254,0l7.254,-0.725l7.254,-0l7.254,-0.725l7.254,-0l13.057,-1.451l6.529,-0l6.529,-0.726l6.528,0l5.803,-0.725l5.804,-0l5.803,-0.726l7.254,0l3.018,-0.377" style="fill:none;fill-rule:nonzero;stroke:#000;stroke-width:12.5px;"/><path d="M2202.96,2839.52l0.725,-0.726l1.451,0l1.451,-0.725l1.45,0l2.177,-0.725l2.901,-0l2.176,-0.726l3.627,0l2.902,-0.725l3.627,-0l3.627,-0.726l4.352,0l4.353,-0.725l4.352,-0l5.078,-0.725l5.078,-0l5.803,-0.726l5.078,-0.725l12.332,-0l5.803,-0.726l6.529,0l5.803,-0.725l7.254,-0.725l6.529,-0l7.254,-0.726l7.254,0l7.254,-0.725l7.254,-0l14.508,-1.451l6.529,-0l6.528,-0.725l6.529,-0l6.529,-0.726l6.528,-0l5.803,-0.725l5.804,-0l5.803,-0.726l7.254,0l5.803,-0.725l6.529,-0l5.803,-0.725l5.803,-0l11.607,-1.451l5.078,-0l8.705,-1.451l3.627,-0l3.627,-0.726l2.901,0l2.902,-0.725l2.176,-0.725l1.451,-0l1.451,-0.726l0.725,0l0.725,-0.725" style="fill:none;fill-rule:nonzero;stroke:#000;stroke-width:12.5px;"/><path d="M2477.17,951.291l0,619.937" style="fill:none;fill-rule:nonzero;stroke:#000;stroke-width:12.5px;"/><path d="M2202.24,1571.17l0,-619.882" style="fill:none;fill-rule:nonzero;stroke:#000;stroke-width:12.5px;"/><path d="M2202.96,2936l0.725,-0.726l1.451,0l1.451,-0.725l1.45,-0l2.177,-0.726l2.901,0l2.176,-0.725l3.627,-0.726l2.902,0l3.627,-0.725l3.627,0l4.352,-0.725l4.353,-0l4.352,-0.726l5.078,0l5.078,-0.725l5.803,-0l5.078,-0.726l5.803,0l6.529,-0.725l5.803,0l6.529,-0.725l5.803,-0l7.254,-0.726l6.529,0l7.254,-0.725l7.254,0l14.508,-1.451l7.254,-0l7.254,-0.725l6.529,-0l6.528,-0.726l6.529,0l6.529,-0.725l6.528,-0l5.803,-0.726l5.804,0l5.803,-0.725l7.254,0l5.803,-0.725l6.529,-0l11.606,-1.451l5.804,-0l5.803,-0.726l5.078,0l8.705,-1.45l3.627,-0l3.627,-0.726l2.901,-0.725l2.902,-0l2.176,-0.726l1.451,0l1.451,-0.725l0.725,-0l0.725,-0.725l0,-0.726l0,6.529l-1.45,1.451l-1.451,-0l-2.176,0.725l-2.177,0l-2.176,0.725l-2.901,0l-3.627,0.726l-3.627,-0l-3.627,0.725l-4.353,0.726l-4.352,-0l-4.353,0.725l-5.078,-0l-5.803,0.725l-5.803,0l-5.803,0.726l-5.804,0l-5.803,0.725l-5.803,0l-5.803,0.726l-6.529,-0l-6.529,0.725l-7.254,0.725l-6.528,0l-7.254,0.726l-7.254,-0l-7.254,0.725l-7.98,0l-14.508,1.451l-7.254,0l-7.254,0.725l-6.529,0l-6.528,0.726l-6.529,-0l-6.529,0.725l-6.528,0l-5.078,0.726l-5.803,-0l-5.078,0.725l-5.078,0l-5.078,0.726l-5.078,-0l-5.077,0.725l-5.078,0l-4.353,0.725l-4.352,0l-7.254,1.451l-3.627,0l-2.902,0.726l-2.176,-0l-2.176,0.725l-2.176,0l-1.451,0.725l-1.451,0l-0.725,0.726l-0.726,-0l0,0.725l0,-6.528l0.726,-0l15.958,-9.431l15.234,-8.705l0.725,-0.725l0.726,0l1.45,-0.725l1.451,-0l2.177,-0.726l2.901,-0.725l2.902,-0l7.254,-1.451l4.352,-0.725l3.627,-0l4.353,-0.726l5.077,0l5.078,-0.725l4.353,-0.726l5.078,0l5.077,-0.725l5.078,-0l5.803,-0.725l5.078,-0l11.607,-1.451l5.803,-0l6.529,-0.726l5.803,0l11.606,-1.45l6.529,-0l5.803,-0.726l6.529,-0.725l6.529,-0l6.528,-0.726l5.803,-0.725l5.804,0l5.803,-0.725l5.078,-0l5.078,-0.726l4.352,-0.725l5.078,-0l4.352,-0.726l3.627,-0.725l4.353,-0l5.803,-1.451l2.902,0l4.352,-1.451l1.451,0l1.451,-0.725l0.725,-0.726" style="fill:none;fill-rule:nonzero;stroke:#000;stroke-width:12.5px;"/><path d="M2253.74,3009.99l4.352,-0.726l3.627,0l4.353,-0.725l5.077,-0.726l5.078,0l4.353,-0.725l5.078,0l10.155,-1.451l5.803,0l5.078,-0.725l5.803,0l5.804,-0.726l5.803,0l6.529,-0.725l5.803,-0.725l5.803,-0l5.803,-0.726l6.529,-0.725l5.803,-0l13.058,-1.451l6.528,0l5.803,-0.725l5.804,-0l5.803,-0.726l5.078,-0.725l5.078,-0l4.352,-0.726l5.078,-0.725l4.352,0l3.627,-0.725l4.353,-0.726l2.901,0l5.804,-1.451l2.176,0l2.176,-0.725l1.451,-0.725l1.451,-0l0.725,-0.726l-0,-5.803" style="fill:none;fill-rule:nonzero;stroke:#000;stroke-width:12.5px;"/><path d="M2202.96,2598.68l15.958,-8.705l15.234,-9.431l0.725,0l0.726,-0.725l1.45,0l1.451,-0.725l2.177,-0.726l2.901,0l2.902,-0.725l7.254,-1.451l4.352,0l3.627,-0.725l4.353,-0.726l5.077,0l5.078,-0.725l4.353,-0l5.078,-0.726l5.077,0l5.078,-0.725l5.803,0l5.078,-0.725l5.803,-0.726l5.804,0l5.803,-0.725l6.529,-0l11.606,-1.451l5.803,0l6.529,-0.725l5.803,-0.726l6.529,0l13.057,-1.451l5.803,0l5.804,-0.725l5.803,-0l10.156,-1.451l4.352,0l5.078,-0.725l4.352,-0.726l3.627,0l4.353,-0.725l2.901,-0.725l2.902,-0l2.902,-0.726l2.176,-0.725l2.176,-0l2.902,-1.451l0.725,-0l-0,-6.218" style="fill:none;fill-rule:nonzero;stroke:#000;stroke-width:12.5px;"/><path d="M2202.96,2309.97l0.725,-0.726l1.451,0l1.451,-0.725l1.45,-0l2.177,-0.726l2.901,0l2.176,-0.725l3.627,0l2.902,-0.725l3.627,-0.726l3.627,0l4.352,-0.725l4.353,0l4.352,-0.726l5.078,0l5.078,-0.725l5.803,0l5.078,-0.725l5.803,-0l6.529,-0.726l5.803,0l6.529,-0.725l5.803,-0l7.254,-0.726l6.529,0l7.254,-0.725l7.254,0l14.508,-1.451l7.254,0l7.254,-0.725l6.529,-0l6.528,-0.726l6.529,0l6.529,-0.725l6.528,0l5.803,-0.725l5.804,-0l5.803,-0.726l7.254,0l5.803,-0.725l6.529,-0l11.606,-1.451l5.804,0l5.803,-0.725l5.078,-0l8.705,-1.451l3.627,-0l3.627,-0.726l2.901,-0.725l2.902,0l2.176,-0.725l1.451,-0l1.451,-0.726l0.725,0l0.725,-0.725" style="fill:none;fill-rule:nonzero;stroke:#000;stroke-width:12.5px;"/><path d="M2242.14,2978.8l-9.43,0l-4.352,0.726l-4.353,-0l-2.901,0.725l-5.804,-0l-1.45,0.726l-5.078,-0l-0.726,0.725l-1.45,-0l12.331,-6.529l15.234,-9.43l1.451,-0.725l1.45,-0l1.451,-0.726l2.177,-0.725l2.901,-0l2.902,-0.726l7.254,-1.45l4.352,-0l3.627,-0.726l4.353,0l10.155,-1.451l4.353,0l5.078,-0.725l5.077,-0l5.078,-0.725l5.803,-0l5.078,-0.726l5.803,-0.725l5.804,-0l5.803,-0.726l6.529,0l11.606,-1.45l5.803,-0l6.529,-0.726l5.803,-0.725l6.529,-0l13.057,-1.451l5.803,-0l5.804,-0.725l5.803,-0l10.155,-1.451l4.353,-0l5.078,-0.726l4.352,-0.725l3.627,-0l4.352,-0.725l2.902,-0.726l2.902,-0l2.901,-0.725l2.177,-0.726l2.176,0l2.901,-1.45l0.726,-6.218" style="fill:none;fill-rule:nonzero;stroke:#000;stroke-width:12.5px;"/><path d="M2202.96,2454.33l0.725,-0.725l1.451,-0l1.451,-0.726l1.45,0l2.177,-0.725l2.901,-0l2.176,-0.726l3.627,0l2.902,-0.725l3.627,0l3.627,-0.725l4.352,-0l4.353,-0.726l4.352,0l10.156,-1.451l5.803,0l5.078,-0.725l5.803,0l6.529,-0.725l5.803,-0l6.529,-0.726l5.803,0l7.254,-0.725l6.529,-0l7.254,-0.726l7.254,0l7.254,-0.725l7.254,0l14.508,-1.451l6.529,0l6.528,-0.725l6.529,-0l6.529,-0.726l6.528,0l5.803,-0.725l5.804,0l5.803,-0.725l7.254,-0l5.803,-0.726l6.529,0l5.803,-0.725l5.803,-0l11.607,-1.451l5.078,0l8.705,-1.451l3.627,0l3.627,-0.725l2.901,-0l2.902,-0.726l2.176,-0.725l1.451,0l1.451,-0.725l0.725,-0l0.725,-0.726" style="fill:none;fill-rule:nonzero;stroke:#000;stroke-width:12.5px;"/><path d="M2202.96,2550.81l15.958,-9.43l15.234,-8.705l0.725,-0.726l0.726,0l1.45,-0.725l1.451,0l2.177,-0.725l5.803,-1.451l3.627,-0l3.627,-0.726l4.352,-0.725l3.627,-0l4.353,-0.726l5.077,-0.725l5.078,0l4.353,-0.725l5.078,-0l5.077,-0.726l5.078,0l5.803,-0.725l5.078,-0l11.607,-1.451l5.803,0l6.529,-0.725l5.803,-0l11.606,-1.451l6.529,-0l5.803,-0.726l6.529,-0.725l6.529,0l6.528,-0.725l5.803,-0.726l5.804,0l5.803,-0.725l5.078,-0l5.078,-0.725l4.352,-0.726l5.078,0l4.352,-0.725l3.627,-0.726l4.353,0l5.803,-1.451l2.902,0l4.352,-1.45l1.451,-0l1.451,-0.726l0.725,-0.725" style="fill:none;fill-rule:nonzero;stroke:#000;stroke-width:12.5px;"/><path d="M2202.96,2791.64l0.725,-0.725l1.451,-0l1.451,-0.726l1.45,0l2.177,-0.725l2.901,-0.725l2.176,-0l3.627,-0.726l2.902,-0l3.627,-0.725l3.627,-0l4.352,-0.726l4.353,0l4.352,-0.725l5.078,-0l5.078,-0.725l5.803,-0l5.078,-0.726l5.803,-0l6.529,-0.725l5.803,-0l6.529,-0.726l5.803,0l7.254,-0.725l6.529,-0l14.508,-1.451l7.254,-0l7.254,-0.725l7.254,-0l7.254,-0.726l6.529,0l13.057,-1.451l6.529,0l6.528,-0.725l5.803,-0l5.804,-0.725l5.803,-0l7.254,-0.726l5.803,0l6.529,-0.725l5.803,-0l5.803,-0.726l5.804,0l5.803,-0.725l5.078,-0.725l4.352,-0l4.353,-0.726l3.627,-0.725l3.627,-0l2.901,-0.726l2.902,0l2.176,-0.725l1.451,-0.725l1.451,-0l0.725,-0.726l0.725,0l0,-1.451l-15.958,-8.704l-15.234,-8.705l-0,0.725l-0.725,0.726l-1.451,0.725l-1.451,-0l-4.352,1.451l-2.902,-0l-5.803,1.451l-4.353,-0l-3.627,0.725l-4.352,0.725l-5.078,0l-4.352,0.726l-5.078,-0l-5.078,0.725l-5.803,0.726l-5.804,-0l-5.803,0.725l-6.528,0.725l-6.529,0l-6.529,0.726l-5.803,0.725l-6.529,0l-5.803,0.726l-5.803,-0l-5.803,0.725l-6.529,0.725l-5.803,0l-5.804,0.726l-5.803,-0l-5.078,0.725l-5.803,0.726l-5.078,-0l-5.077,0.725l-5.078,-0l-4.353,0.725l-5.078,0l-5.077,0.726l-4.353,0.725l-3.627,0l-4.352,0.726l-3.627,0.725l-3.627,-0l-5.803,1.451l-2.177,-0l-2.901,1.451l-1.451,-0l-15.234,9.43l-15.958,9.43l-0.726,-0l0,0.726" style="fill:none;fill-rule:nonzero;stroke:#000;stroke-width:12.5px;"/><path d="M2477.17,2341.16l-0.725,0l-0.725,0.725l-1.451,0.726l-2.176,-0l-2.177,0.725l-2.176,0l-2.901,0.726l-3.627,-0l-7.254,1.45l-4.353,0l-4.352,0.726l-4.353,0l-5.078,0.725l-5.803,0l-5.803,0.726l-5.803,-0l-5.804,0.725l-5.803,0l-5.803,0.725l-5.803,0l-6.529,0.726l-6.529,0l-7.254,0.725l-6.528,0.726l-7.254,-0l-7.254,0.725l-7.254,0l-7.98,0.726l-7.254,-0l-14.508,1.45l-7.254,0l-6.529,0.726l-6.528,-0l-6.529,0.725l-6.529,0l-6.528,0.726l-5.078,-0l-5.803,0.725l-5.078,0l-5.078,0.725l-5.078,0l-5.078,0.726l-5.077,-0l-5.078,0.725l-4.353,0l-4.352,0.726l-3.627,0.725l-3.627,0l-3.627,0.725l-2.902,0l-2.176,0.726l-2.176,-0l-2.176,0.725l-1.451,0l-1.451,0.726l-0.725,-0l-0.726,0.725l0,0.725" style="fill:none;fill-rule:nonzero;stroke:#000;stroke-width:12.5px;"/><path d="M2477.17,2485.52l-0.725,0.726l-0.725,-0l-1.451,0.725l-2.176,0l-2.177,0.726l-2.176,-0l-2.901,0.725l-3.627,0l-7.254,1.451l-4.353,-0l-4.352,0.725l-4.353,0l-5.078,0.726l-5.803,-0l-11.606,1.45l-5.804,0l-5.803,0.726l-5.803,0l-5.803,0.725l-6.529,0l-6.529,0.726l-7.254,-0l-6.528,0.725l-7.254,0l-7.254,0.726l-7.254,-0l-7.98,0.725l-7.254,0.725l-7.254,0l-7.254,0.726l-7.254,-0l-6.529,0.725l-6.528,0l-6.529,0.726l-6.529,-0l-6.528,0.725l-5.078,0l-5.803,0.725l-5.078,0l-5.078,0.726l-5.078,-0l-5.078,0.725l-5.077,0l-5.078,0.726l-4.353,0.725l-4.352,0l-3.627,0.725l-3.627,0l-3.627,0.726l-2.902,-0l-2.176,0.725l-2.176,0l-2.176,0.726l-1.451,0.725l-1.451,0l-0.725,0.725l-0.726,0l0,0.726l0.726,-0l2.901,2.176l3.627,2.176l3.627,1.451l3.627,2.176l4.353,2.902l3.627,2.176l5.077,2.902l3.627,2.176" style="fill:none;fill-rule:nonzero;stroke:#000;stroke-width:12.5px;"/><path d="M2477.17,2293.29l-0.725,0l-0.725,0.726l-1.451,-0l-2.176,0.725l-2.177,0l-2.176,0.726l-2.901,-0l-7.254,1.45l-3.627,0l-4.353,0.726l-4.352,-0l-4.353,0.725l-5.078,0l-11.606,1.451l-5.803,0l-5.804,0.725l-5.803,0l-5.803,0.726l-5.803,-0l-6.529,0.725l-6.529,0l-7.254,0.726l-6.528,-0l-7.254,0.725l-7.254,0l-7.254,0.725l-7.98,0.726l-7.254,0l-7.254,0.725l-7.254,0l-7.254,0.726l-6.529,-0l-6.528,0.725l-6.529,0l-6.529,0.725l-6.528,0l-5.078,0.726l-5.803,-0l-5.078,0.725l-5.078,0l-5.078,0.726l-5.078,-0l-5.077,0.725l-5.078,0l-8.705,1.451l-3.627,0l-3.627,0.725l-3.627,0l-2.902,0.726l-2.176,-0l-4.352,1.451l-1.451,-0l-1.451,0.725l-0.725,0l-0.726,0.725" style="fill:none;fill-rule:nonzero;stroke:#000;stroke-width:12.5px;"/><path d="M2445.97,2750.29l-0,-5.803" style="fill:none;fill-rule:nonzero;stroke:#000;stroke-width:12.5px;"/><path d="M2477.17,2967.19l-0.725,-0l-0.725,0.725l-1.451,0l-4.353,1.451l-2.176,0l-2.901,0.725l-3.627,0l-3.627,0.726l-3.627,0l-8.705,1.451l-4.353,-0l-5.078,0.725l-5.803,0l-5.803,0.725l-5.803,0l-5.804,0.726l-5.803,0l-5.803,0.725l-5.803,0l-6.529,0.726l-6.529,-0l-7.254,0.725l-6.528,0l-14.508,1.451l-7.254,0l-6.529,0.725l-30.467,4.353l-4.353,0.725l-5.077,0.726l-8.705,1.45l-5.078,0l-3.627,0.726l-8.705,1.451l-14.508,2.901l-2.902,0.726l-7.254,1.45l-3.627,1.451l-2.901,0.726l-2.902,1.45l-2.902,0.726l-2.176,0.725l-1.451,0.726l-1.45,1.45l-1.451,0.726l0,0.725l-0.726,0.726l0,2.901l3.627,3.627" style="fill:none;fill-rule:nonzero;stroke:#000;stroke-width:12.5px;"/><path d="M2202.24,2653.81l31.192,18.135" style="fill:none;fill-rule:nonzero;stroke:#000;stroke-width:12.5px;"/><path d="M2202.24,2268.62l0.726,0.725l2.901,1.451l10.881,6.529l4.353,2.176l3.627,2.176l5.077,2.902l3.627,2.176l0,-0.726l0.726,-0.725l0.725,0l1.451,-0.725l1.451,-0l4.352,-1.451l2.902,-0l3.627,-0.726l2.902,-0.725l4.352,-0l8.705,-1.451l4.352,0l10.156,-1.451l5.078,0l5.078,-0.725l5.803,0l11.606,-1.451l6.529,0l5.803,-0.725l6.529,-0.726l6.528,0l13.058,-1.451l6.528,0l13.058,-1.45l6.528,-0l11.607,-1.451l5.803,0l5.078,-0.726l5.803,0l5.078,-0.725l5.078,0l8.705,-1.451l4.352,0l4.352,-0.725l3.628,-0.726l2.901,0l5.803,-1.45l2.177,-0.726l1.45,0l1.451,-0.725l0.726,0l5.077,-2.902l4.353,-2.901l4.352,-2.177l4.353,-2.901l7.254,-4.353l2.901,-1.45l3.627,-2.177l0,-6.528" style="fill:none;fill-rule:nonzero;stroke:#000;stroke-width:12.5px;"/><path d="M2477.17,2389.04l-0.725,0.725l-0.725,0l-1.451,0.726l-2.176,-0l-4.353,1.45l-2.901,0l-3.627,0.726l-3.627,-0l-3.627,0.725l-4.353,0l-8.705,1.451l-5.078,0l-5.803,0.725l-5.803,0l-5.803,0.726l-5.804,-0l-5.803,0.725l-5.803,0l-5.803,0.726l-6.529,-0l-6.529,0.725l-7.254,0l-6.528,0.725l-7.254,0l-14.508,1.451l-7.98,0l-7.254,0.726l-7.254,-0l-14.508,1.45l-6.529,0l-6.528,0.726l-6.529,-0l-6.529,0.725l-6.528,0l-5.078,0.726l-5.803,-0l-5.078,0.725l-5.078,0l-5.078,0.725l-5.078,0l-5.077,0.726l-5.078,-0l-4.353,0.725l-4.352,0l-3.627,0.726l-3.627,-0l-3.627,0.725l-2.902,0.725l-2.176,0l-2.176,0.726l-2.176,-0l-1.451,0.725l-1.451,0l-0.725,0.726l-0.726,-0l0,0.725l0.726,0.725l2.901,1.451l10.881,6.529l4.353,2.176l3.627,2.176l5.077,2.902l3.627,2.176" style="fill:none;fill-rule:nonzero;stroke:#000;stroke-width:12.5px;"/><path d="M2202.96,2357.85l15.958,-8.705l15.234,-9.43l0.725,0l0.726,-0.725l1.45,0l1.451,-0.726l2.177,-0.725l2.901,0l2.902,-0.725l3.627,-0.726l3.627,0l4.352,-0.725l3.627,-0.726l4.353,0l10.155,-1.45l4.353,-0l5.078,-0.726l5.077,0l5.078,-0.725l5.803,-0l5.078,-0.726l5.803,-0.725l5.804,0l5.803,-0.725l6.529,-0l11.606,-1.451l5.803,-0l6.529,-0.726l5.803,0l19.586,-2.176l5.803,0l5.804,-0.725l5.803,-0l10.156,-1.451l4.352,0l5.078,-0.725l4.352,-0l3.627,-0.726l4.353,-0.725l2.901,-0.726l2.902,0l2.902,-0.725l2.176,-0.725l2.176,-0l1.451,-0.726l1.451,0l0.725,-0.725l-0,-6.529" style="fill:none;fill-rule:nonzero;stroke:#000;stroke-width:12.5px;"/><path d="M2233.43,2840.97l-2.176,-0l-4.352,0.725l-3.627,-0l-3.627,0.725l-3.627,0l-2.902,0.726l-2.176,0.725l-2.176,0l-2.176,0.726l-1.451,-0l-1.451,0.725l-0.725,-0l-0.726,0.725l0,0.726l0.726,-0l2.901,2.176l3.627,1.451l7.254,4.352l4.353,2.176l3.627,2.902l5.077,2.176l3.627,2.902" style="fill:none;fill-rule:nonzero;stroke:#000;stroke-width:12.5px;"/><path d="M2202.24,2695.89l0,-0.726l0.726,0l15.958,-9.43l15.234,-8.705l0.725,0l0.726,-0.725l1.45,-0.726l1.451,0l2.177,-0.725l2.901,-0.725l2.902,-0l7.254,-1.451l4.352,-0l3.627,-0.726l4.353,-0.725l5.077,-0l5.078,-0.725l4.353,-0.726l5.078,0l5.077,-0.725l5.078,-0l5.803,-0.726l5.078,0l5.803,-0.725l5.804,-0l5.803,-0.725l6.529,-0.726l5.803,0l11.606,-1.451l6.529,0l5.803,-0.725l6.529,-0.725l6.529,-0l6.528,-0.726l5.803,0l11.607,-1.451l5.078,0l5.078,-0.725l4.352,-0.725l5.078,-0l4.352,-0.726l3.627,-0.725l4.353,-0l5.803,-1.451l2.902,-0l4.352,-1.451l1.451,0l1.451,-0.725l0.725,-0l-0,-6.529" style="fill:none;fill-rule:nonzero;stroke:#000;stroke-width:12.5px;"/><path d="M2233.43,2677.03l0,-5.803l0.726,-0.725l0.725,-0l1.451,-0.726l1.451,0l2.176,-0.725l2.902,-0.726l2.901,0l2.902,-0.725l3.627,-0.725l3.627,-0l8.705,-1.451l4.352,-0l10.156,-1.451l5.078,-0l5.803,-0.725l5.078,-0l5.803,-0.726l6.529,-0.725l5.803,-0l13.057,-1.451l6.529,-0l13.057,-1.451l6.529,0l13.057,-1.451l5.803,0l6.529,-0.725l5.803,-0.725l5.803,-0l5.078,-0.726l5.078,0l5.078,-0.725l5.078,-0l4.352,-0.726l5.078,-0.725l3.627,-0l4.352,-0.725l3.628,-0.726l2.901,0l5.803,-1.451l2.177,-0.725l1.45,-0l1.451,-0.725l0.726,-0l5.077,-2.902l4.353,-2.902l4.352,-2.176l4.353,-2.902l7.254,-4.352l2.901,-1.451l3.627,-2.176l0,-6.529" style="fill:none;fill-rule:nonzero;stroke:#000;stroke-width:12.5px;"/><path d="M2477.17,2726.36l-0.725,-0l-0.725,0.725l-1.451,0.726l-2.176,-0l-2.177,0.725l-2.176,-0l-2.901,0.725l-3.627,0l-7.254,1.451l-4.353,0l-4.352,0.726l-4.353,-0l-5.078,0.725l-5.803,-0l-5.803,0.725l-5.803,0l-5.804,0.726l-5.803,-0l-5.803,0.725l-5.803,0l-6.529,0.726l-6.529,-0l-7.254,0.725l-6.528,0.725l-7.254,0l-7.254,0.726l-7.254,-0l-7.98,0.725l-7.254,0.726l-7.254,-0l-7.254,0.725l-7.254,-0l-6.529,0.725l-6.528,0l-6.529,0.726l-6.529,-0l-6.528,0.725l-5.078,0l-5.803,0.726l-5.078,-0l-5.078,0.725l-5.078,-0l-5.078,0.725l-5.077,0l-5.078,0.726l-2.177,-0" style="fill:none;fill-rule:nonzero;stroke:#000;stroke-width:12.5px;"/><path d="M2233.43,2436.19l0,-5.803l0.726,-0l0.725,-0.726l0.726,0l1.45,-0.725l2.177,-0.725l2.176,-0l5.803,-1.451l3.627,-0l7.254,-1.451l4.353,0l5.077,-0.726l4.353,-0.725l5.078,0l5.078,-0.725l5.803,-0l5.078,-0.726l5.803,-0.725l5.803,0l6.529,-0.726l5.803,-0.725l6.529,0l13.057,-1.451l6.528,0l13.058,-1.451l6.528,0l6.529,-0.725l5.803,-0.725l5.804,-0l5.803,-0.726l5.803,0l10.156,-1.451l5.078,0l5.077,-0.725l4.353,0l8.705,-1.451l3.627,0l3.627,-0.725l2.901,-0.726l2.177,0l2.901,-0.725l1.451,-0.725l1.451,-0l1.451,-0.726l5.077,-2.901l4.353,-2.902l4.352,-2.176l4.353,-2.902l3.627,-2.176l3.627,-1.451l2.901,-2.176l3.627,-2.176l0,-6.529" style="fill:none;fill-rule:nonzero;stroke:#000;stroke-width:12.5px;"/><path d="M2233.43,2767.7l0.726,-0.726l0.725,0l2.902,-1.45l2.176,-0l2.176,-0.726l2.902,-0.725l2.902,-0l7.254,-1.451l4.352,-0l8.705,-1.451l5.078,0l5.078,-0.725l5.077,-0l5.078,-0.726l5.803,0l11.607,-1.45l5.803,-0l13.057,-1.451l6.529,-0l13.057,-1.451l6.529,-0l13.057,-1.451l5.803,-0l6.529,-0.725l5.803,-0.726l5.804,0l5.077,-0.725l5.078,-0l5.804,-0.725l4.352,-0.726l5.078,-0l8.705,-1.451l4.352,0l3.627,-0.725l2.902,-0.725l2.901,-0l2.902,-0.726l2.176,-0.725l2.176,-0l1.451,-0.726l0.726,-0.725l5.077,-2.902l4.353,-2.176l4.352,-2.902l4.353,-2.176l7.254,-4.352l2.901,-1.451l3.627,-2.176l0,-6.529" style="fill:none;fill-rule:nonzero;stroke:#000;stroke-width:12.5px;"/><path d="M2475.35,2823.56l-1.088,-0l-2.176,0.725l-2.177,0l-2.176,0.726l-2.901,0.725l-3.627,-0l-3.627,0.726l-3.627,-0l-4.353,0.725l-4.352,-0l-4.353,0.725l-5.078,0.726l-5.803,-0l-5.803,0.725l-5.803,0l-5.804,0.726l-5.803,-0l-5.803,0.725l-5.803,-0l-6.529,0.725l-6.529,0l-7.254,0.726l-6.528,-0l-7.254,0.725l-7.254,0l-7.254,0.726l-7.98,0.725l-7.254,-0l-7.254,0.725l-7.254,0l-7.254,0.726l-6.529,0.725l-6.528,0l-6.529,0.726l-6.529,-0l-6.528,0.725l-5.078,0l-5.803,0.725l-10.156,0l-5.078,0.726l-5.078,-0l-10.155,1.451l-2.177,-0" style="fill:none;fill-rule:nonzero;stroke:#000;stroke-width:12.5px;"/><path d="M2202.24,2455.05l0,-0.725l0.726,0l15.958,-9.43l15.234,-8.705l0.725,0l0.726,-0.725l1.45,-0.726l1.451,0l2.177,-0.725l2.901,-0.726l2.902,0l7.254,-1.45l4.352,-0l3.627,-0.726l4.353,-0.725l5.077,-0l5.078,-0.726l4.353,0l10.155,-1.45l5.078,-0l5.803,-0.726l5.078,0l5.803,-0.725l5.804,-0l5.803,-0.726l6.529,-0.725l5.803,0l5.803,-0.726l5.803,0l6.529,-0.725l5.803,-0.725l6.529,-0l13.057,-1.451l5.803,0l11.607,-1.451l5.078,0l5.078,-0.725l4.352,-0l5.078,-0.726l4.352,-0.725l3.627,0l4.353,-0.726l2.901,-0.725l2.902,0l2.902,-0.725l2.176,-0.726l2.176,0l2.902,-1.451l0.725,0l-0,-0.725" style="fill:none;fill-rule:nonzero;stroke:#000;stroke-width:12.5px;"/><path d="M2202.96,2261.37l15.958,-8.705l15.234,-9.43l1.451,-0l2.901,-1.451l2.177,-0l5.803,-1.451l3.627,-0.725l3.627,-0l4.352,-0.726l3.627,-0.725l4.353,-0l5.077,-0.726l5.078,0l4.353,-0.725l5.078,-0l10.155,-1.451l5.803,0l5.078,-0.725l5.803,-0l11.607,-1.451l6.529,-0l5.803,-0.726l5.803,0l5.803,-0.725l6.529,-0.725l5.803,-0l13.058,-1.451l6.528,-0l11.607,-1.451l5.803,0l5.078,-0.725l5.078,-0l4.352,-0.726l5.078,-0.725l4.352,-0l3.627,-0.726l4.353,-0.725l2.901,0l5.804,-1.451l2.176,0l2.176,-0.725l1.451,-0.726l1.451,0l0.725,-0.725l-0,-5.803" style="fill:none;fill-rule:nonzero;stroke:#000;stroke-width:12.5px;"/><path d="M2202.24,2894.65l0.726,0l2.901,2.177l3.627,2.176l3.627,1.451l3.627,2.176l4.353,2.902l3.627,2.176l5.077,2.901l3.627,2.177" style="fill:none;fill-rule:nonzero;stroke:#000;stroke-width:12.5px;"/><path d="M2477.17,2822.83l-1.209,0.483" style="fill:none;fill-rule:nonzero;stroke:#000;stroke-width:12.5px;"/><path d="M2233.43,2744.49l-2.176,-0l-4.352,0.725l-3.627,0.726l-3.627,-0l-3.627,0.725l-2.902,-0l-2.176,0.726l-2.176,-0l-2.176,0.725l-1.451,-0l-1.451,0.725l-0.725,0l-0.726,0.726l0,0.725l0.726,-0l2.901,2.176l3.627,1.451l7.254,4.353l4.353,2.901l3.627,2.176l5.077,2.902l3.627,2.176" style="fill:none;fill-rule:nonzero;stroke:#000;stroke-width:12.5px;"/><path d="M2233.43,2624.07l-3.627,-2.176l-5.077,-2.902l-3.627,-2.902l-4.353,-2.176l-7.254,-4.352l-3.627,-1.451l-2.901,-2.176l-0.726,-0l0,-7.254l1.451,-0l1.451,-0.726l1.451,0l1.45,-0.725l2.177,-0.725l2.901,-0l2.176,-0.726l3.627,-0l2.902,-0.725l3.627,-0l3.627,-0.726l4.352,0l4.353,-0.725l4.352,-0l5.078,-0.726l5.078,0l5.803,-0.725l5.078,-0l5.803,-0.725l6.529,-0l5.803,-0.726l6.529,0l5.803,-0.725l7.254,-0l6.529,-0.726l7.254,-0.725l7.254,-0l7.254,-0.726l7.254,0l7.254,-0.725l7.254,0l13.057,-1.451l6.529,0l6.529,-0.725l6.528,-0l5.803,-0.725l5.804,-0l5.803,-0.726l7.254,0l5.803,-0.725l6.529,-0l5.803,-0.726l5.803,0l11.607,-1.451l5.078,0l4.352,-0.725l4.353,0l7.254,-1.451l2.901,0l2.902,-0.725l2.176,-0l2.902,-1.451l0.725,0l0.725,-0.725" style="fill:none;fill-rule:nonzero;stroke:#000;stroke-width:12.5px;"/><path d="M2202.24,2942.53l0.726,0.726l2.901,1.45l10.881,6.529l4.353,2.176l3.627,2.902l5.077,2.176l3.627,2.176l0,5.803" style="fill:none;fill-rule:nonzero;stroke:#000;stroke-width:12.5px;"/><path d="M2233.43,2334.64l-3.627,-2.176l-5.077,-2.176l-3.627,-2.902l-4.353,-2.176l-10.881,-6.528l-2.901,-1.451l-0.726,-0l0,-7.254l0.726,-0l15.958,-9.431l15.234,-8.704l0.725,-0l0.726,-0.726l1.45,-0.725l1.451,-0l2.177,-0.726l2.901,-0.725l2.902,0l7.254,-1.451l4.352,0l3.627,-0.725l4.353,-0.726l5.077,0l5.078,-0.725l4.353,-0.725l5.078,-0l5.077,-0.726l5.078,0l5.803,-0.725l5.078,-0l11.607,-1.451l5.803,-0l6.529,-0.725l5.803,-0l11.606,-1.451l6.529,-0l5.803,-0.726l6.529,-0.725l6.529,0l6.528,-0.725l5.803,-0.726l5.804,0l5.803,-0.725l5.078,-0l5.078,-0.726l4.352,-0.725l5.078,-0l4.352,-0.726l3.627,-0.725l4.353,0l5.803,-1.451l2.902,0l4.352,-1.451l1.451,0l1.451,-0.725l0.725,0l-0,-6.529" style="fill:none;fill-rule:nonzero;stroke:#000;stroke-width:12.5px;"/><path d="M2477.17,2244.69l-0.725,0.726l-0.725,-0l-1.451,0.725l-2.176,0l-2.177,0.726l-2.176,-0l-2.901,0.725l-3.627,0.725l-3.627,0l-3.627,0.726l-4.353,-0l-4.352,0.725l-4.353,0l-5.078,0.726l-5.803,0.725l-5.803,0l-5.803,0.725l-5.804,0l-5.803,0.726l-5.803,-0l-5.803,0.725l-6.529,0l-6.529,0.726l-7.254,-0l-6.528,0.725l-7.254,0l-14.508,1.451l-7.98,-0l-7.254,0.725l-7.254,0l-7.254,0.726l-7.254,-0l-13.057,1.45l-6.529,0l-6.529,0.726l-6.528,-0l-5.078,0.725l-10.881,0l-5.078,0.726l-5.078,-0l-5.078,0.725l-5.077,0l-5.078,0.725l-4.353,0.726l-4.352,0l-3.627,0.725l-3.627,0l-3.627,0.726l-2.902,-0l-4.352,1.45l-2.176,0l-1.451,0.726l-1.451,-0l-0.725,0.725l-0.726,0l0,0.726l0,-6.529l0.726,-0.725l0.725,-0l1.451,-0.726l1.451,0l1.45,-0.725l2.177,-0l2.901,-0.726l2.176,0l3.627,-0.725l2.902,0l3.627,-0.725l3.627,-0l4.352,-0.726l4.353,0l4.352,-0.725l5.078,-0.726l5.078,0l5.803,-0.725l5.078,0l5.803,-0.725l6.529,-0l5.803,-0.726l6.529,0l5.803,-0.725l7.254,-0l6.529,-0.726l7.254,0l7.254,-0.725l7.254,0l14.508,-1.451l7.254,0l6.529,-0.725l6.528,-0l6.529,-0.726l6.529,0l6.528,-0.725l5.803,-0l5.804,-0.725l5.803,-0l7.254,-0.726l5.803,0l6.529,-0.725l5.803,-0l11.607,-1.451l5.803,0l5.078,-0.725l4.352,-0l4.353,-0.726l3.627,-0.725l3.627,-0l5.803,-1.451l2.176,-0l1.451,-0.725l1.451,-0l0.725,-0.726l0.725,0l0,-1.451l-15.958,-8.705l-15.234,-8.704" style="fill:none;fill-rule:nonzero;stroke:#000;stroke-width:12.5px;"/><path d="M2477.17,2526.87l-15.958,-9.43l-15.234,-8.705" style="fill:none;fill-rule:nonzero;stroke:#000;stroke-width:12.5px;"/><path d="M2202.24,2743.76l0.726,-0.725l0.725,-0l1.451,-0.725l1.451,-0l1.45,-0.726l2.177,0l2.901,-0.725l2.176,-0.726l3.627,0l2.902,-0.725l3.627,-0l3.627,-0.725l4.352,-0" style="fill:none;fill-rule:nonzero;stroke:#000;stroke-width:12.5px;"/><path d="M2580.9,700.301l-23.938,-24.664l-433.792,0l-23.938,24.664l-0,238.658l481.668,-0l0,-238.658l-481.668,-0" style="fill:none;fill-rule:nonzero;stroke:#000;stroke-width:12.5px;"/><path d="M2202.24,2364.38l0,0.725l0.726,0l2.901,2.177l3.627,1.45l7.254,4.353l4.353,2.901l3.627,2.177l5.077,2.901l3.627,2.176" style="fill:none;fill-rule:nonzero;stroke:#000;stroke-width:12.5px;"/><path d="M2477.17,2437.64l-0.725,-0l-0.725,0.725l-1.451,0l-2.176,0.726l-2.177,-0l-2.176,0.725l-2.901,0.725l-3.627,0l-3.627,0.726l-3.627,-0l-4.353,0.725l-4.352,0l-4.353,0.726l-5.078,0.725l-5.803,0l-5.803,0.725l-5.803,0l-5.804,0.726l-5.803,-0l-5.803,0.725l-5.803,0l-6.529,0.726l-6.529,-0l-7.254,0.725l-6.528,0l-7.254,0.725l-7.254,0l-7.254,0.726l-7.98,0.725l-7.254,0l-7.254,0.726l-7.254,-0l-7.254,0.725l-6.529,0.725l-6.528,0l-6.529,0.726l-6.529,-0l-6.528,0.725l-5.078,0l-5.803,0.726l-10.156,-0l-5.078,0.725l-5.078,0l-10.155,1.451l-4.353,0l-4.352,0.725l-3.627,0l-3.627,0.726l-3.627,-0l-2.902,0.725l-2.176,0.725l-2.176,0l-2.176,0.726l-1.451,0l-1.451,0.725l-0.725,0l-0.726,0.726l0,0.725l0.726,0l2.901,2.176l3.627,1.451l7.254,4.353l4.353,2.176l3.627,2.901l5.077,2.177l3.627,2.901" style="fill:none;fill-rule:nonzero;stroke:#000;stroke-width:12.5px;"/><path d="M2233.43,2738.69l4.353,-0.726l4.352,0l5.078,-0.725l5.078,-0l5.803,-0.726l5.078,0l5.803,-0.725l6.529,-0l5.803,-0.725l6.529,-0l5.803,-0.726l7.254,0l6.529,-0.725l7.254,-0l14.508,-1.451l7.254,-0l7.254,-0.725l7.254,-0l6.529,-0.726l6.528,0l6.529,-0.725l6.529,-0l6.528,-0.726l5.803,0l5.804,-0.725l5.803,-0l7.254,-0.725l5.803,-0l6.529,-0.726l5.803,-0.725l5.803,-0l5.804,-0.726l5.803,0l5.078,-0.725l4.352,-0.725l4.353,-0l7.254,-1.451l2.901,-0l2.902,-0.726l2.176,0l1.451,-0.725l1.451,-0l0.725,-0.725l0.725,-0l0,-1.451l-15.958,-9.43l-15.234,-8.705" style="fill:none;fill-rule:nonzero;stroke:#000;stroke-width:12.5px;"/><path d="M2477.17,2912.06l-15.958,-9.43l-15.234,-8.705" style="fill:none;fill-rule:nonzero;stroke:#000;stroke-width:12.5px;"/><path d="M2477.17,2678.48l-0.725,-0l-0.725,0.726l-1.451,-0l-2.176,0.725l-2.177,-0l-2.176,0.725l-2.901,0l-7.254,1.451l-3.627,0l-4.353,0.726l-4.352,-0l-4.353,0.725l-5.078,-0l-11.606,1.451l-5.803,-0l-5.804,0.725l-5.803,0l-5.803,0.726l-5.803,-0l-6.529,0.725l-6.529,-0l-7.254,0.725l-6.528,0l-7.254,0.726l-7.254,-0l-7.254,0.725l-7.98,0.726l-7.254,-0l-7.254,0.725l-7.254,-0l-7.254,0.725l-6.529,0l-13.057,1.451l-6.529,0l-6.528,0.726l-10.881,-0l-5.078,0.725l-5.078,-0l-5.078,0.725l-5.078,0l-5.077,0.726l-5.078,-0l-8.705,1.451l-3.627,-0l-3.627,0.725l-3.627,-0l-2.902,0.725l-2.176,0l-4.352,1.451l-1.451,0l-1.451,0.726l-0.725,-0l-0.726,0.725l0,0.725l0.726,0l2.901,1.451l10.881,6.529l4.353,2.176l3.627,2.902l5.077,2.176l3.627,2.902" style="fill:none;fill-rule:nonzero;stroke:#000;stroke-width:12.5px;"/><path d="M2477.17,2582l-0.725,0l-0.725,0.726l-1.451,-0l-4.353,1.451l-2.176,-0l-2.901,0.725l-3.627,-0l-3.627,0.725l-3.627,0l-8.705,1.451l-4.353,0l-5.078,0.725l-5.803,0l-5.803,0.726l-5.803,-0l-5.804,0.725l-5.803,0l-5.803,0.726l-5.803,-0l-6.529,0.725l-6.529,0l-7.254,0.726l-6.528,-0l-14.508,1.45l-7.254,0l-7.98,0.726l-7.254,-0l-14.508,1.451l-7.254,-0l-6.529,0.725l-6.528,-0l-6.529,0.726l-6.529,-0l-6.528,0.725l-5.078,-0l-5.803,0.725l-5.078,0l-5.078,0.726l-5.078,-0l-5.078,0.725l-5.077,-0l-5.078,0.725l-4.353,0l-4.352,0.726l-3.627,-0l-7.254,1.451l-2.902,-0l-2.176,0.725l-2.176,-0l-2.176,0.726l-1.451,-0l-1.451,0.725l-0.725,-0l-0.726,0.725" style="fill:none;fill-rule:nonzero;stroke:#000;stroke-width:12.5px;"/><path d="M2477.17,2767.7l0,6.528l-0.725,0.726l-0.725,-0l-1.451,0.725l-2.176,0.726l-2.177,-0l-2.176,0.725l-2.901,-0l-3.627,0.725l-3.627,0l-3.627,0.726l-4.353,-0l-8.705,1.451l-5.078,-0l-5.803,0.725l-5.803,-0l-5.803,0.725l-5.804,0l-5.803,0.726l-5.803,-0l-5.803,0.725l-6.529,0l-6.529,0.726l-7.254,-0l-6.528,0.725l-7.254,-0l-14.508,1.451l-7.98,-0l-7.254,0.725l-7.254,0l-14.508,1.451l-6.529,-0l-6.528,0.726l-6.529,-0l-6.529,0.725l-6.528,-0l-5.078,0.725l-5.803,0l-5.078,0.726l-5.078,-0l-5.078,0.725l-5.078,-0l-5.077,0.726l-5.078,-0l-4.353,0.725l-4.352,-0l-3.627,0.725l-3.627,0l-3.627,0.726l-2.902,0.725l-2.176,0l-2.176,0.726l-2.176,-0l-1.451,0.725l-1.451,-0l-0.725,0.725l-0.726,0l0,0.726l0.726,0.725l2.901,1.451l10.881,6.529l4.353,2.176l3.627,2.176l5.077,2.902l3.627,2.176l0,-0.726l0.726,0l0.725,-0.725l0.726,0l2.176,-0.725l1.451,-0.726l2.176,0l5.803,-1.451l3.627,0l3.627,-0.725l4.353,-0.725l4.352,-0l4.352,-0.726l5.078,-0.725l5.078,-0l5.078,-0.726l5.078,0l11.606,-1.45l5.803,-0l5.804,-0.726l6.528,-0.725l6.529,-0l13.057,-1.451l6.529,-0l13.057,-1.451l6.529,0l5.803,-0.725l6.529,-0.726l5.803,0l5.803,-0.725l5.078,-0l5.803,-0.725l5.078,-0.726l5.078,0l4.352,-0.725l5.078,-0l3.627,-0.726l4.353,-0.725l3.627,-0l3.627,-0.725l2.901,-0.726l2.902,0l2.176,-0.725l1.451,-0.726l1.451,0l1.451,-0.725l5.077,-2.902l4.353,-2.901l8.705,-4.353l3.627,-2.901l3.627,-1.451l2.901,-2.176l3.627,-1.451" style="fill:none;fill-rule:nonzero;stroke:#000;stroke-width:12.5px;"/><path d="M2202.96,2213.49l26.774,-15.611" style="fill:none;fill-rule:nonzero;stroke:#000;stroke-width:12.5px;"/><path d="M2233.43,2738.69l0,5.803" style="fill:none;fill-rule:nonzero;stroke:#000;stroke-width:12.5px;"/><path d="M2477.17,2870.71l-0.725,0.726l-0.725,-0l-1.451,0.725l-2.176,0l-2.177,0.725l-2.176,0l-2.901,0.726l-3.627,0.725l-3.627,0l-3.627,0.726l-4.353,-0l-4.352,0.725l-4.353,-0l-5.078,0.725l-5.803,0.726l-5.803,-0l-5.803,0.725l-5.804,0l-5.803,0.726l-5.803,-0l-5.803,0.725l-6.529,-0l-6.529,0.725l-7.254,0l-6.528,0.726l-7.254,-0l-7.254,0.725l-7.254,0l-7.98,0.726l-7.254,0.725l-7.254,0l-7.254,0.725l-7.254,0l-6.529,0.726l-6.528,-0l-13.058,1.451l-11.606,-0l-5.803,0.725l-5.078,0l-5.078,0.725l-5.078,0l-5.078,0.726l-5.077,-0l-5.078,0.725l-4.353,0.726l-4.352,-0l-3.627,0.725l-3.627,-0l-3.627,0.725l-2.902,0l-4.352,1.451l-2.176,0l-1.451,0.726l-1.451,-0l-0.725,0.725l-0.726,0l0,0.725l0,-6.528l0.726,-0.726l0.725,0l1.451,-0.725l1.451,0l1.45,-0.725l2.177,-0l2.901,-0.726l2.176,0l3.627,-0.725l2.902,-0l7.254,-1.451l4.352,0l4.353,-0.725l4.352,-0l5.078,-0.726l5.078,0l5.803,-0.725l5.078,-0l5.803,-0.726l6.529,0l5.803,-0.725l6.529,-0l5.803,-0.725l7.254,-0l6.529,-0.726l7.254,0l7.254,-0.725l7.254,-0l14.508,-1.451l7.254,-0l6.529,-0.725l6.528,-0l6.529,-0.726l6.529,0l6.528,-0.725l5.803,-0l5.804,-0.726l5.803,0l7.254,-0.725l5.803,0l6.529,-0.725l5.803,-0l11.607,-1.451l5.803,-0l5.078,-0.726l4.352,-0.725l4.353,-0l3.627,-0.725l3.627,-0l5.803,-1.451l2.176,-0l1.451,-0.726l1.451,0l0.725,-0.725l0.725,-0l0,-1.451l-15.958,-8.705l-15.234,-8.705l-0,0.726l-0.725,0.725l-1.451,0l-1.451,0.726l-2.176,0.725l-2.176,0l-5.804,1.451l-2.901,-0l-4.353,0.725l-3.627,0.726l-4.352,-0l-5.078,0.725l-4.352,0.725l-5.078,0l-5.078,0.726l-5.803,-0l-11.607,1.451l-6.528,-0l-13.058,1.45l-5.803,0l-6.529,0.726l-5.803,0.725l-5.803,0l-5.803,0.726l-6.529,-0l-11.607,1.451l-5.803,-0l-5.078,0.725l-5.803,-0l-5.078,0.725l-5.077,0l-5.078,0.726l-4.353,0.725l-5.078,0l-5.077,0.726l-4.353,-0l-3.627,0.725l-4.352,0.725l-3.627,0l-3.627,0.726l-5.803,1.451l-2.177,-0l-1.451,0.725l-1.45,-0l-0.726,0.725l-0.725,0l-15.234,9.431l-15.958,8.704" style="fill:none;fill-rule:nonzero;stroke:#000;stroke-width:12.5px;"/><path d="M2234.16,2622.62l1.451,-0.726l5.078,-1.45l2.176,-0l5.803,-1.451l3.627,-0l8.705,-1.451l4.352,0l4.353,-0.726l5.077,-0.725l5.078,0l5.078,-0.725l5.803,-0l5.078,-0.726l5.803,0l6.529,-0.725l5.803,-0.726l6.529,0l13.057,-1.45l6.529,-0l13.057,-1.451l6.529,0l6.528,-0.726l5.804,-0.725l6.528,0l5.803,-0.725l5.078,-0.726l5.804,0l5.077,-0.725l5.078,0l5.078,-0.726l4.352,-0.725l4.353,0l8.705,-1.451l2.901,0l3.627,-0.725l2.902,-0.726l2.176,0l2.176,-0.725l1.451,-0.725l1.451,-0l0.725,-0.726l5.078,-2.901l4.353,-2.177l4.352,-2.901l4.352,-2.176l7.255,-4.353l2.901,-2.176l3.627,-1.451l0,-6.529l-15.959,-10.155l-15.233,-8.705" style="fill:none;fill-rule:nonzero;stroke:#000;stroke-width:12.5px;"/><path d="M2233.43,2238.16l0.726,-0l0,-0.726l0.725,-0.725l1.451,-0l2.176,-0.726l1.451,-0.725l2.902,0l5.803,-1.451l3.627,0l3.627,-0.725l4.352,-0.726l4.353,0l10.155,-1.45l5.078,-0l5.078,-0.726l5.078,0l5.803,-0.725l5.803,-0l5.804,-0.726l6.528,-0.725l5.804,0l13.057,-1.451l6.528,0l7.255,-0.725l6.528,-0.726l5.803,0l13.058,-1.45l5.803,-0l11.606,-1.451l5.078,-0l5.803,-0.726l5.078,0l4.353,-0.725l5.078,-0.725l4.352,-0l4.352,-0.726l3.627,-0.725l3.628,-0l3.627,-0.726l2.901,-0.725l2.176,0l2.177,-0.725l1.45,-0.726l1.451,0l0.726,-0.725l5.077,-2.902l4.353,-2.176l4.352,-2.902l4.353,-2.176l7.254,-4.352l2.901,-2.177l0.943,-0.377" style="fill:none;fill-rule:nonzero;stroke:#000;stroke-width:12.5px;"/><path d="M2233.43,2960.66l0.726,-0.725l2.901,-1.451l1.451,0l2.177,-0.725l2.901,-0.726l2.902,0l2.901,-0.725l3.627,-0.726l4.353,0l8.705,-1.45l4.352,-0l10.156,-1.451l5.803,-0l5.078,-0.726l5.803,0l11.606,-1.45l6.529,-0l13.057,-1.451l6.529,-0l13.057,-1.451l6.529,-0l6.529,-0.725l5.803,-0.726l6.529,0l5.803,-0.725l5.803,-0l5.803,-0.726l5.078,-0.725l5.078,-0l5.078,-0.725l5.078,-0l8.704,-1.451l4.353,-0l7.254,-1.451l3.627,0l2.176,-0.725l2.902,-0.726l2.176,0l1.451,-0.725l0.725,-0.726l0.726,0l5.077,-2.901l4.353,-2.902l8.705,-4.352l7.254,-4.353l2.901,-2.176l3.627,-1.451" style="fill:none;fill-rule:nonzero;stroke:#000;stroke-width:12.5px;"/><path d="M2233.43,2719.83l1.451,-1.451l1.451,0l1.451,-0.725l2.176,-0.725l2.176,-0l5.804,-1.451l3.627,-0l4.352,-0.726l3.627,-0.725l4.352,-0l5.078,-0.725l4.353,-0.726l5.078,-0l5.803,-0.725l5.078,-0l11.606,-1.451l5.803,-0l5.803,-0.725l6.529,-0l19.586,-2.177l6.529,0l13.057,-1.451l6.529,0l5.803,-0.725l6.529,-0l11.606,-1.451l5.078,0l5.078,-0.725l5.078,-0l10.155,-1.451l4.353,-0l4.352,-0.725l3.627,-0.726l3.627,0l3.627,-0.725l2.902,-0.726l2.176,0l4.352,-1.45l1.451,-0l0.726,-0.726l5.077,-2.901l4.353,-2.902l8.705,-4.352l7.254,-4.353l2.901,-2.176l3.627,-1.451l0,-7.254l-15.958,-9.43l-15.234,-8.705" style="fill:none;fill-rule:nonzero;stroke:#000;stroke-width:12.5px;"/><path d="M2233.43,2526.87l0.726,0l0.725,-0.725l0.726,0l2.901,-1.451l2.177,0l5.803,-1.45l3.627,-0l7.254,-1.451l4.352,-0.726l4.353,0l5.077,-0.725l5.078,-0l10.156,-1.451l5.078,0l5.803,-0.725l5.803,-0l6.529,-0.726l5.803,-0.725l6.529,-0l13.057,-1.451l6.529,0l13.057,-1.451l6.529,0l6.528,-0.725l5.804,-0.726l6.528,0l5.803,-0.725l5.078,0l5.078,-0.725l5.803,-0.726l5.078,0l4.353,-0.725l5.077,-0l4.353,-0.726l3.627,-0.725l4.352,-0.725l2.902,-0l3.627,-0.726l2.902,-0.725l2.176,-0l2.176,-0.726l1.451,-0.725l1.451,0l-0,-0.725l5.077,-2.177l4.353,-2.901l4.352,-2.176l4.353,-2.902l7.254,-4.353l2.901,-1.45l3.627,-2.177l0,-6.528" style="fill:none;fill-rule:nonzero;stroke:#000;stroke-width:12.5px;"/><path d="M2099.23,938.959l12.332,12.332l457.004,-0l12.332,-12.332" style="fill:none;fill-rule:nonzero;stroke:#000;stroke-width:12.5px;"/><path d="M2202.96,2646.56l15.958,-8.705l15.234,-9.43l1.451,0l2.901,-1.451l2.177,0l5.803,-1.45l3.627,-0l3.627,-0.726l4.352,-0.725l3.627,-0l4.353,-0.726l5.077,-0.725l5.078,-0l4.353,-0.725l5.078,-0l10.155,-1.451l5.803,-0l5.078,-0.726l5.803,0l5.804,-0.725l5.803,-0l6.529,-0.725l5.803,-0.726l5.803,0l5.803,-0.725l6.529,-0.726l5.803,0l13.058,-1.451l6.528,0l5.803,-0.725l5.804,0l5.803,-0.725l5.078,-0.726l5.078,0l4.352,-0.725l5.078,-0.725l4.352,-0l3.627,-0.726l4.353,-0.725l2.901,-0l5.804,-1.451l2.176,-0l2.176,-0.726l1.451,-0.725l1.451,0l0.725,-0.725l-0,-5.804" style="fill:none;fill-rule:nonzero;stroke:#000;stroke-width:12.5px;"/><path d="M2233.43,2917.86l0,-5.803l0.726,0l0.725,-0.725l0.726,-0l1.45,-0.726l2.177,-0.725l2.176,-0l2.176,-0.725l2.902,-0.726l3.627,-0.725l3.627,-0l3.627,-0.726l4.352,-0.725l5.078,0l4.352,-0.725l5.078,-0l10.156,-1.451l5.803,-0l5.803,-0.726l5.804,0l5.803,-0.725l6.529,-0.725l6.528,-0l13.057,-1.451l6.529,-0l13.057,-1.451l6.529,-0l5.803,-0.725l6.529,-0.726l5.803,0l5.803,-0.725l5.804,-0l10.155,-1.451l5.078,-0l5.078,-0.726l4.352,-0.725l4.353,0l4.352,-0.725l3.627,-0.726l3.627,0l5.804,-1.451l2.176,0l2.176,-0.725l1.451,-0.725l1.451,-0l-0,-0.726l5.077,-2.176l4.353,-2.902l4.352,-2.176l4.353,-2.901l7.254,-4.353l2.901,-1.451l3.627,-2.176l0,-6.528" style="fill:none;fill-rule:nonzero;stroke:#000;stroke-width:12.5px;"/><path d="M2333.19,1741.12l0,-134.7" style="fill:none;fill-rule:nonzero;stroke:#000;stroke-width:4.17px;"/><path d="M2366.86,1741.12l0,-134.7" style="fill:none;fill-rule:nonzero;stroke:#000;stroke-width:4.17px;"/><path d="M2400.53,1741.12l-0,-134.7" style="fill:none;fill-rule:nonzero;stroke:#000;stroke-width:4.17px;"/><path d="M2434.22,1741.12l0,-134.7" style="fill:none;fill-rule:nonzero;stroke:#000;stroke-width:4.17px;"/><path d="M2467.89,1741.12l0,-134.7" style="fill:none;fill-rule:nonzero;stroke:#000;stroke-width:4.17px;"/><path d="M2501.56,1741.12l-0,-134.7" style="fill:none;fill-rule:nonzero;stroke:#000;stroke-width:4.17px;"/><path d="M2541.28,1606.42l-0,135.556" style="fill:none;fill-rule:nonzero;stroke:#000;stroke-width:12.5px;"/><path d="M2555.95,1741.12l0,-134.7" style="fill:none;fill-rule:nonzero;stroke:#000;stroke-width:4.17px;"/><path d="M1749.51,1734.22l132.981,-133.829" style="fill:none;fill-rule:nonzero;stroke:#000;stroke-width:4.17px;"/><path d="M1744.33,1644.41l36.256,-40.557" style="fill:none;fill-rule:nonzero;stroke:#000;stroke-width:4.17px;"/><path d="M1837.57,1741.13l136.427,-140.742" style="fill:none;fill-rule:nonzero;stroke:#000;stroke-width:4.17px;"/><path d="M1940.32,1747.17l142.462,-146.778" style="fill:none;fill-rule:nonzero;stroke:#000;stroke-width:4.17px;"/><path d="M2044.8,1744.59l70.785,-75.137" style="fill:none;fill-rule:nonzero;stroke:#000;stroke-width:4.17px;"/><path d="M2559.41,1644.41l36.255,-40.557" style="fill:none;fill-rule:nonzero;stroke:#000;stroke-width:4.17px;"/><path d="M2564.59,1744.59l136.427,-140.735" style="fill:none;fill-rule:nonzero;stroke:#000;stroke-width:4.17px;"/><path d="M2659.56,1744.59l136.427,-140.735" style="fill:none;fill-rule:nonzero;stroke:#000;stroke-width:4.17px;"/><path d="M2771.8,1744.59l136.434,-137.304" style="fill:none;fill-rule:nonzero;stroke:#000;stroke-width:4.17px;"/><path d="M2863.34,1744.59l56.987,-61.318" style="fill:none;fill-rule:nonzero;stroke:#000;stroke-width:4.17px;"/><path d="M2528.44,1867.52l1.617,218.121l-35.399,112.242l-310.843,0l-38.86,-111.393l385.102,-0.849" style="fill:none;fill-rule:nonzero;stroke:#000;stroke-width:12.5px;"/><path d="M1751.23,1741.12l1172.54,-0" style="fill:none;fill-rule:nonzero;stroke:#000;stroke-width:12.5px;"/><path d="M1746.05,1606.42l1182.92,-0" style="fill:none;fill-rule:nonzero;stroke:#000;stroke-width:12.5px;"/><path d="M2332.33,1746.31l0,82.021" style="fill:none;fill-rule:nonzero;stroke:#000;stroke-width:4.17px;"/><path d="M2089.69,1825.75l493.898,0.849" style="fill:none;fill-rule:nonzero;stroke:#000;stroke-width:12.5px;"/><path d="M1746.05,1610.73c0,0.87 2.583,10.366 5.187,10.366c-0,8.632 -5.187,15.545 -5.187,22.458c-1.726,0 -1.726,3.453 -1.726,4.302l-1.727,-0c-0.878,1.726 -0.878,6.913 -1.726,7.791l1.726,31.069c2.575,2.604 9.489,24.185 6.036,29.372l-0.856,-0l-0,3.452l-1.727,0l-0.878,9.489l0.878,-0l0,3.46l5.187,4.302l-0,-3.453" style="fill:none;fill-rule:nonzero;stroke:#000;stroke-width:12.5px;"/><path d="M2928.09,1615.06c-0,0.849 0.87,10.366 -0,11.215l-0.878,0l0,6.057l-1.704,0c-0.878,0.856 4.308,9.489 4.308,9.489l1.727,16.401c-1.727,0 -2.583,1.726 -3.453,1.726c1.726,-1.726 0.87,0 -0,2.583l-3.46,1.726c-0,1.727 -0,2.605 -0.871,2.605c0,4.308 -4.309,14.674 -2.582,19.005l0.878,0c5.157,7.762 7.761,12.941 7.761,22.43c-0.856,-0 -1.726,4.33 -4.308,4.33c-0,2.583 -1.749,6.036 -3.453,8.64l-0.878,-0l-3.453,12.948l4.331,1.727" style="fill:none;fill-rule:nonzero;stroke:#000;stroke-width:12.5px;"/><path d="M2089.69,1826.6c0.877,-0 54.405,0.87 52.678,41.435l2.59,219.05" style="fill:none;fill-rule:nonzero;stroke:#000;stroke-width:12.5px;"/><path d="M2528.33,1868.04c-0,-37.134 52.656,-41.44 55.261,-41.435" style="fill:none;fill-rule:nonzero;stroke:#000;stroke-width:12.5px;"/><path d="M2118.19,1741.12l-0,-134.7" style="fill:none;fill-rule:nonzero;stroke:#000;stroke-width:12.5px;"/><path d="M2101.26,1825.77c-35.522,-21.628 -60.795,-48.547 -10.664,-84.653" style="fill:none;fill-rule:nonzero;stroke:#000;stroke-width:12.5px;"/><path d="M2117.71,1825.8c-35.544,-21.632 -60.871,-48.559 -10.718,-84.681" style="fill:none;fill-rule:nonzero;stroke:#000;stroke-width:4.17px;"/><path d="M2134.32,1825.83c-36.641,-21.638 -57.426,-48.572 -7.476,-84.71" style="fill:none;fill-rule:nonzero;stroke:#000;stroke-width:4.17px;"/><path d="M2165.04,1825.88c-32.715,-20.593 -52.076,-50.681 -4.508,-84.762" style="fill:none;fill-rule:nonzero;stroke:#000;stroke-width:4.17px;"/><path d="M2208.79,1825.95c-36.775,-21.659 -57.741,-48.628 -7.692,-84.837" style="fill:none;fill-rule:nonzero;stroke:#000;stroke-width:4.17px;"/><path d="M2249.47,1826.03c-36.846,-21.671 -57.878,-48.659 -7.812,-84.907" style="fill:none;fill-rule:nonzero;stroke:#000;stroke-width:4.17px;"/><path d="M2279.81,1826.08c-36.904,-21.68 -58.043,-48.683 -7.9,-84.96" style="fill:none;fill-rule:nonzero;stroke:#000;stroke-width:4.17px;"/><path d="M2317.02,1826.14c-36.981,-21.69 -58.167,-48.71 -8.012,-85.023" style="fill:none;fill-rule:nonzero;stroke:#000;stroke-width:4.17px;"/><path d="M2355.01,1741.12c37.777,21.721 53.896,48.782 3.385,85.095" style="fill:none;fill-rule:nonzero;stroke:#000;stroke-width:4.17px;"/><path d="M2392.16,1741.12c37.813,21.733 53.865,48.813 3.303,85.158" style="fill:none;fill-rule:nonzero;stroke:#000;stroke-width:4.17px;"/><path d="M2425.82,1741.12c37.826,21.745 53.906,48.842 3.219,85.216" style="fill:none;fill-rule:nonzero;stroke:#000;stroke-width:4.17px;"/><path d="M2466.4,1741.12c37.85,21.759 53.927,48.876 3.122,85.286" style="fill:none;fill-rule:nonzero;stroke:#000;stroke-width:4.17px;"/><path d="M2510.45,1741.12c37.865,21.774 53.939,48.914 3.006,85.361" style="fill:none;fill-rule:nonzero;stroke:#000;stroke-width:4.17px;"/><path d="M2544.12,1741.12c37.896,21.785 53.966,48.943 2.936,85.419" style="fill:none;fill-rule:nonzero;stroke:#000;stroke-width:4.17px;"/><path d="M2559.67,1741.12c37.913,21.791 53.949,48.956 2.902,85.445" style="fill:none;fill-rule:nonzero;stroke:#000;stroke-width:4.17px;"/><path d="M2577.64,1741.12c38.987,21.796 50.365,48.968 -0.412,85.471" style="fill:none;fill-rule:nonzero;stroke:#000;stroke-width:12.5px;"/><path d="M2131.13,1741.12l0,-134.7" style="fill:none;fill-rule:nonzero;stroke:#000;stroke-width:4.17px;"/><path d="M2164.83,1741.12l-0,-134.7" style="fill:none;fill-rule:nonzero;stroke:#000;stroke-width:4.17px;"/><path d="M2198.48,1741.12l0,-134.7" style="fill:none;fill-rule:nonzero;stroke:#000;stroke-width:4.17px;"/><path d="M2232.16,1741.12l0,-134.7" style="fill:none;fill-rule:nonzero;stroke:#000;stroke-width:4.17px;"/><path d="M2265.83,1741.12l0,-134.7" style="fill:none;fill-rule:nonzero;stroke:#000;stroke-width:4.17px;"/><path d="M2299.51,1741.12l-0,-134.7" style="fill:none;fill-rule:nonzero;stroke:#000;stroke-width:4.17px;"/><path d="M2445.97,2893.92l-0.725,-4.352" style="fill:none;fill-rule:nonzero;stroke:#000;stroke-width:12.5px;"/><path d="M2975.78,1605.9l331.648,0" style="fill:none;stroke:#000;stroke-width:12.5px;stroke-linecap:square;stroke-miterlimit:1.5;"/><path d="M2975.78,3015.33l331.648,-0" style="fill:none;stroke:#000;stroke-width:12.5px;stroke-linecap:square;stroke-miterlimit:1.5;"/><path d="M3218.21,1760.18l-56.25,-112.5l-56.25,112.5l112.5,0Z"/><path d="M3218.21,2857.89l-56.25,112.5l-56.25,-112.5l112.5,0Z"/><path d="M3161.96,1737.68l-0,1142.71" style="fill:none;stroke:#000;stroke-width:12.5px;stroke-linecap:square;stroke-miterlimit:1.5;"/><g transform="matrix(4.16667,0,0,4.16667,-471.612,36.1491)"><text x="893.967px" y="541.974px" style="font-family:'DINAlternate-Bold', 'DIN Alternate', sans-serif;font-weight:700;font-size:36px;">max</text><text x="893.967px" y="577.974px" style="font-family:'DINAlternate-Bold', 'DIN Alternate', sans-serif;font-weight:700;font-size:36px;">18mm</text></g><text x="3253.25px" y="1104.29px" style="font-family:'DINAlternate-Bold', 'DIN Alternate', sans-serif;font-weight:700;font-size:150px;">M4</text></g></svg>