<?xml version="1.0" encoding="UTF-8" standalone="no"?><!DOCTYPE svg PUBLIC "-//W3C//DTD SVG 1.1//EN" "http://www.w3.org/Graphics/SVG/1.1/DTD/svg11.dtd"><svg width="100%" height="100%" viewBox="0 0 48 48" version="1.1" xmlns="http://www.w3.org/2000/svg" xmlns:xlink="http://www.w3.org/1999/xlink" xml:space="preserve" xmlns:serif="http://www.serif.com/" style="fill-rule:evenodd;clip-rule:evenodd;stroke-miterlimit:10;"><path d="M2.456,28.363c0.257,-0.146 0.557,-0.247 0.858,-0.298c0.303,-0.053 0.612,-0.064 0.916,-0.046c0.609,0.042 1.197,0.192 1.756,0.391c1.121,0.401 2.141,0.982 3.111,1.615c0.482,0.321 0.952,0.657 1.412,1.004c0.457,0.351 0.903,0.713 1.342,1.085c0.102,0.086 0.303,0.261 0.303,0.261c0,0 0.001,0.02 -0.061,-0.614c-0.12,-1.27 -0.262,-2.549 -0.389,-3.829c-0.257,-2.564 -0.535,-5.128 -0.677,-7.728c-0.029,-0.653 -0.065,-1.303 -0.07,-1.979c-0.002,-0.17 -0.002,-0.342 -0,-0.523l0.007,-0.286c0.005,-0.108 0.007,-0.203 0.029,-0.39c0.007,-0.052 0.013,-0.107 0.035,-0.212c0.012,-0.05 0.028,-0.122 0.073,-0.241c0.023,-0.062 0.061,-0.154 0.14,-0.281c0.017,-0.102 0.424,-0.475 0.588,-0.533l0.019,-0.009c0.064,-0.031 0.131,-0.059 0.198,-0.082c0.107,-0.035 0.195,-0.054 0.292,-0.068c0.188,-0.027 0.359,-0.017 0.502,0.007c0.139,0.024 0.25,0.059 0.346,0.097c0.089,0.035 0.17,0.075 0.231,0.11c0.128,0.074 0.217,0.141 0.291,0.201c0.147,0.122 0.24,0.223 0.325,0.318c0.083,0.094 0.152,0.182 0.215,0.267c0.249,0.334 0.423,0.638 0.596,0.94c0.172,0.3 0.327,0.597 0.477,0.894c0.299,0.592 0.584,1.176 0.868,1.76c0.566,1.165 1.125,2.324 1.752,3.441c0.625,1.118 1.306,2.201 2.066,3.221c0.768,1.011 1.605,1.971 2.547,2.79c0.938,0.812 1.995,1.501 3.1,1.803c0.275,0.074 0.55,0.124 0.821,0.146c0.271,0.018 0.537,0.01 0.796,-0.027c0.258,-0.037 0.508,-0.101 0.748,-0.191l0.012,-0.004c-0.01,0.002 0.036,-0.011 -0.018,0.004l0.028,-0.011l0.057,-0.022c0.032,-0.014 0.041,-0.021 0.063,-0.032c0.049,-0.026 0.096,-0.052 0.142,-0.081c0.092,-0.057 0.179,-0.12 0.259,-0.191c0.645,-0.559 0.976,-1.584 1.021,-2.634c0.026,-0.526 -0.011,-1.063 -0.11,-1.571l-0.181,-0.918c-0.064,-0.318 -0.124,-0.637 -0.181,-0.956c-0.234,-1.279 -0.446,-2.566 -0.646,-3.863c-0.197,-1.298 -0.376,-2.603 -0.494,-3.95c-0.061,-0.675 -0.097,-1.358 -0.097,-2.09c0.003,-0.37 0.012,-0.747 0.071,-1.187c0.031,-0.222 0.07,-0.459 0.157,-0.758c0.045,-0.15 0.103,-0.321 0.207,-0.531c0.109,-0.207 0.256,-0.482 0.617,-0.796l0.16,-0.139l0.214,-0.107c0.158,-0.078 0.334,-0.138 0.51,-0.171c0.094,-0.018 0.167,-0.026 0.237,-0.03c0.072,-0.005 0.145,-0.006 0.218,-0.002c0.073,0.003 0.145,0.01 0.216,0.021c0.057,0.009 0.097,0.017 0.145,0.029c0.094,0.022 0.186,0.05 0.275,0.085c0.064,0.025 0.112,0.047 0.167,0.075l0.079,0.041l0.068,0.039c0.063,0.039 0.131,0.085 0.186,0.126c0.041,0.032 0.081,0.064 0.12,0.097c0.038,0.033 0.057,0.052 0.087,0.08l0.04,0.038l0.03,0.031l0.058,0.061c0.132,0.146 0.202,0.242 0.271,0.334c0.128,0.176 0.221,0.32 0.31,0.461c0.173,0.28 0.319,0.537 0.464,0.794c0.285,0.511 0.56,1.004 0.822,1.5c0.524,0.992 1.048,1.963 1.571,2.925c0.532,0.957 1.069,1.901 1.641,2.8c0.566,0.9 1.172,1.762 1.817,2.495c0.322,0.361 0.66,0.686 0.982,0.927c0.326,0.244 0.622,0.372 0.827,0.408c0.027,0.005 0.053,0.008 0.08,0.01c0.013,0.002 0.026,0.002 0.039,0.002c0.009,-0.001 0.008,0.002 0.025,-0.001l0.052,-0.007l0.053,-0.007c0.007,-0 0.006,0 0.009,0.001c0.005,0.001 0.01,0.004 0.026,0c0.027,-0.002 0.052,-0.006 0.075,-0.011c0.089,-0.019 0.159,-0.036 0.254,-0.114c0.189,-0.151 0.397,-0.569 0.549,-1.05c0.314,-0.976 0.516,-2.172 1.032,-3.305c0.131,-0.282 0.279,-0.563 0.461,-0.824c0.045,-0.066 0.091,-0.131 0.14,-0.194c0.024,-0.031 0.048,-0.063 0.074,-0.094l0.038,-0.046l0.019,-0.023l0.009,-0.011l0.005,-0.006c-0.016,0.022 0.026,-0.036 0.023,-0.032c0.045,-0.044 0.116,-0.117 0.173,-0.168c0.06,-0.056 0.122,-0.108 0.186,-0.158c0.253,-0.201 0.526,-0.355 0.798,-0.478c0.272,-0.124 0.542,-0.223 0.807,-0.32l0.176,0.31c-0.223,0.181 -0.45,0.35 -0.653,0.529c-0.202,0.18 -0.383,0.364 -0.529,0.561c-0.036,0.05 -0.07,0.1 -0.103,0.151c-0.034,0.055 -0.052,0.091 -0.093,0.159c-0.005,0.008 0.034,-0.046 0.017,-0.021l-0.003,0.005l-0.005,0.011l-0.009,0.022l-0.019,0.042c-0.013,0.028 -0.024,0.058 -0.036,0.086c-0.025,0.057 -0.045,0.117 -0.067,0.175c-0.08,0.237 -0.148,0.479 -0.195,0.731c-0.097,0.502 -0.138,1.028 -0.169,1.576c-0.033,0.55 -0.046,1.118 -0.123,1.736c-0.039,0.31 -0.091,0.633 -0.19,0.978c-0.101,0.343 -0.248,0.715 -0.504,1.082c-0.253,0.366 -0.635,0.71 -1.061,0.919c-0.105,0.054 -0.212,0.101 -0.319,0.14c-0.05,0.02 -0.113,0.041 -0.177,0.06l-0.143,0.043l-0.051,0.015l-0.079,0.019c-0.056,0.014 -0.112,0.026 -0.169,0.036c-0.113,0.021 -0.228,0.037 -0.341,0.045c-0.457,0.036 -0.9,-0.022 -1.293,-0.132c-0.394,-0.11 -0.746,-0.263 -1.067,-0.433c-0.642,-0.341 -1.17,-0.75 -1.652,-1.173c-0.483,-0.424 -0.918,-0.867 -1.323,-1.323c-0.405,-0.456 -0.789,-0.918 -1.151,-1.39c-0.722,-0.944 -1.384,-1.909 -2.002,-2.889c-0.092,-0.143 -0.274,-0.432 -0.274,-0.432c0,0 -0.012,-0.074 0.091,1.193c0.103,1.269 0.236,2.542 0.365,3.821c0.034,0.319 0.066,0.64 0.095,0.961l0.091,1.001c0.055,0.774 0.009,1.539 -0.142,2.293c-0.15,0.753 -0.407,1.497 -0.808,2.199c-0.399,0.697 -0.976,1.359 -1.732,1.798c-0.187,0.11 -0.384,0.203 -0.586,0.281c-0.1,0.039 -0.203,0.072 -0.305,0.103c-0.054,0.015 -0.122,0.035 -0.167,0.045l-0.153,0.035c-0.384,0.076 -0.776,0.109 -1.163,0.1c-0.387,-0.008 -0.769,-0.059 -1.135,-0.146c-0.366,-0.082 -0.718,-0.199 -1.052,-0.34c-0.67,-0.279 -1.27,-0.651 -1.825,-1.054c-0.553,-0.409 -1.065,-0.849 -1.546,-1.315c-0.961,-0.93 -1.824,-1.928 -2.646,-2.951c-0.829,-1.017 -1.624,-2.057 -2.417,-3.099l-2.361,-3.126c-0.017,-0.024 -0.079,-0.101 -0.079,-0.101c-0,-0 0.358,4.32 0.49,6.479c0.082,1.294 0.139,2.592 0.181,3.899c0.018,0.655 0.026,1.312 0.022,1.982c-0.004,0.337 -0.007,0.674 -0.031,1.036c-0.012,0.183 -0.025,0.365 -0.057,0.596c-0.008,0.059 -0.018,0.122 -0.033,0.197c-0.015,0.077 -0.031,0.157 -0.076,0.296c-0.027,0.073 -0.053,0.157 -0.139,0.307c-0.041,0.068 -0.111,0.178 -0.235,0.298c-0.074,0.07 -0.152,0.134 -0.279,0.206c-0.115,0.064 -0.278,0.128 -0.445,0.151c-0.341,0.054 -0.656,-0.054 -0.804,-0.137c-0.084,-0.044 -0.144,-0.086 -0.197,-0.125c-0.043,-0.033 -0.093,-0.078 -0.118,-0.103c-0.124,-0.123 -0.172,-0.198 -0.216,-0.263l0.058,0.08c0.01,0.01 -0.017,-0.026 -0.031,-0.045l-0.057,-0.074l-0.121,-0.153l-0.253,-0.311l-0.52,-0.622c-0.35,-0.414 -0.713,-0.818 -1.079,-1.22c-0.365,-0.402 -0.739,-0.796 -1.122,-1.179c-0.38,-0.387 -0.769,-0.763 -1.169,-1.125c-0.398,-0.364 -0.807,-0.715 -1.23,-1.042c-0.419,-0.333 -0.857,-0.636 -1.308,-0.909c-0.452,-0.267 -0.923,-0.501 -1.415,-0.647c-0.492,-0.153 -1.003,-0.204 -1.519,-0.08l-0.127,-0.333Z" style="fill:none;fill-rule:nonzero;stroke:#808080;stroke-opacity:0.22;stroke-width:0.65px;"/></svg>